<svg xmlns="http://www.w3.org/2000/svg" xmlns:xlink="http://www.w3.org/1999/xlink" width="500" zoomAndPan="magnify" viewBox="0 0 375 374.999991" height="500" preserveAspectRatio="xMidYMid meet" version="1.0"><defs><g/><clipPath id="762c4eb804"><rect x="0" width="296" y="0" height="123"/></clipPath><clipPath id="2285c5120c"><rect x="0" width="293" y="0" height="20"/></clipPath><clipPath id="29f4cc9970"><path d="M 63 142.445312 L 63.75 142.445312 L 63.75 204 L 63 204 Z M 63 142.445312 " clip-rule="nonzero"/></clipPath></defs><g transform="matrix(1, 0, 0, 1, 59, 114)"><g clip-path="url(#762c4eb804)"><g fill="#ffffff" fill-opacity="1"><g transform="translate(0.749036, 90.828873)"><g><path d="M 5.515625 -4.046875 L 9.359375 -19.125 C 11.660156 -17.539062 14.140625 -16.238281 16.796875 -15.21875 C 19.460938 -14.207031 22.109375 -13.703125 24.734375 -13.703125 C 27.035156 -13.703125 28.925781 -14.191406 30.40625 -15.171875 C 31.882812 -16.160156 32.625 -17.738281 32.625 -19.90625 C 32.625 -21.351562 32.175781 -22.535156 31.28125 -23.453125 C 30.394531 -24.367188 28.90625 -25.15625 26.8125 -25.8125 L 17.9375 -28.96875 C 13.46875 -30.550781 10.128906 -32.769531 7.921875 -35.625 C 5.722656 -38.476562 4.625 -42.238281 4.625 -46.90625 C 4.625 -50.851562 5.5625 -54.398438 7.4375 -57.546875 C 9.3125 -60.703125 12.054688 -63.21875 15.671875 -65.09375 C 19.285156 -66.96875 23.617188 -67.90625 28.671875 -67.90625 C 32.617188 -67.90625 36.460938 -67.457031 40.203125 -66.5625 C 43.953125 -65.675781 46.941406 -64.609375 49.171875 -63.359375 L 44.546875 -48.875 C 42.304688 -50.320312 39.804688 -51.457031 37.046875 -52.28125 C 34.296875 -53.101562 31.703125 -53.515625 29.265625 -53.515625 C 26.640625 -53.515625 24.671875 -53.019531 23.359375 -52.03125 C 22.046875 -51.039062 21.390625 -49.695312 21.390625 -48 C 21.390625 -46.550781 21.78125 -45.398438 22.5625 -44.546875 C 23.351562 -43.691406 24.503906 -43 26.015625 -42.46875 L 34.984375 -39.21875 C 40.242188 -37.25 44.070312 -34.800781 46.46875 -31.875 C 48.863281 -28.957031 50.0625 -25.265625 50.0625 -20.796875 C 50.0625 -16.648438 49.109375 -12.9375 47.203125 -9.65625 C 45.296875 -6.375 42.582031 -3.78125 39.0625 -1.875 C 35.550781 0.03125 31.300781 0.984375 26.3125 0.984375 C 23.488281 0.984375 20.742188 0.71875 18.078125 0.1875 C 15.421875 -0.332031 13.007812 -0.984375 10.84375 -1.765625 C 8.675781 -2.554688 6.898438 -3.316406 5.515625 -4.046875 Z M 5.515625 -4.046875 "/></g></g></g><g fill="#ffffff" fill-opacity="1"><g transform="translate(55.241143, 90.828873)"><g><path d="M 7.984375 0 L 7.984375 -67.015625 L 24.9375 -67.015625 L 24.9375 0 Z M 7.984375 0 "/></g></g></g><g fill="#ffffff" fill-opacity="1"><g transform="translate(88.153191, 90.828873)"><g><path d="M 57.359375 -60.515625 L 50.65625 -47.109375 C 45.851562 -50.648438 41.253906 -52.421875 36.859375 -52.421875 C 31.859375 -52.421875 28.078125 -50.757812 25.515625 -47.4375 C 22.960938 -44.125 21.6875 -39.445312 21.6875 -33.40625 C 21.6875 -26.90625 23.015625 -22.140625 25.671875 -19.109375 C 28.328125 -16.085938 31.757812 -14.578125 35.96875 -14.578125 C 39.320312 -14.578125 42.113281 -15.332031 44.34375 -16.84375 L 44.34375 -26.90625 L 32.328125 -26.90625 L 32.328125 -39.609375 L 59.515625 -39.609375 L 59.515625 -6.890625 C 57.679688 -5.453125 55.382812 -4.140625 52.625 -2.953125 C 49.863281 -1.773438 46.9375 -0.820312 43.84375 -0.09375 C 40.757812 0.625 37.738281 0.984375 34.78125 0.984375 C 29.195312 0.984375 24.101562 -0.375 19.5 -3.09375 C 14.90625 -5.820312 11.242188 -9.765625 8.515625 -14.921875 C 5.796875 -20.085938 4.4375 -26.25 4.4375 -33.40625 C 4.4375 -40.695312 5.796875 -46.921875 8.515625 -52.078125 C 11.242188 -57.234375 14.90625 -61.175781 19.5 -63.90625 C 24.101562 -66.632812 29.195312 -68 34.78125 -68 C 43.976562 -68 51.503906 -65.503906 57.359375 -60.515625 Z M 57.359375 -60.515625 "/></g></g></g><g fill="#ffffff" fill-opacity="1"><g transform="translate(153.287517, 90.828873)"><g><path d="M 54.796875 0 L 7.984375 0 L 7.984375 -67.015625 L 54.796875 -67.015625 L 54.796875 -52.234375 L 24.140625 -52.234375 L 24.140625 -41.09375 L 48.6875 -41.09375 L 48.6875 -27.09375 L 24.140625 -27.09375 L 24.140625 -14.6875 L 54.796875 -14.6875 Z M 54.796875 0 "/></g></g></g><g fill="#ffffff" fill-opacity="1"><g transform="translate(213.002198, 90.828873)"><g><path d="M 57.75 0 L 57.75 -38.828125 L 42.671875 -16.453125 L 39.90625 -16.453125 L 24.9375 -38.828125 L 24.9375 0 L 7.984375 0 L 7.984375 -67.015625 L 23.546875 -67.015625 L 41.296875 -41 L 59.03125 -67.015625 L 74.703125 -67.015625 L 74.703125 0 Z M 57.75 0 "/></g></g></g></g></g><g transform="matrix(1, 0, 0, 1, 61, 215)"><g clip-path="url(#2285c5120c)"><g fill="#ffffff" fill-opacity="1"><g transform="translate(0.438668, 14.260892)"><g><path d="M 5.421875 -4.5 L 3.25 -5.015625 C 2.550781 -5.179688 2 -5.46875 1.59375 -5.875 C 1.1875 -6.289062 0.984375 -6.816406 0.984375 -7.453125 C 0.984375 -7.953125 1.125 -8.414062 1.40625 -8.84375 C 1.695312 -9.269531 2.128906 -9.617188 2.703125 -9.890625 C 3.273438 -10.160156 4.015625 -10.296875 4.921875 -10.296875 C 5.597656 -10.296875 6.253906 -10.207031 6.890625 -10.03125 C 7.523438 -9.863281 8.023438 -9.675781 8.390625 -9.46875 L 8.078125 -8.515625 C 7.847656 -8.660156 7.554688 -8.796875 7.203125 -8.921875 C 6.847656 -9.046875 6.46875 -9.144531 6.0625 -9.21875 C 5.664062 -9.300781 5.273438 -9.34375 4.890625 -9.34375 C 4.234375 -9.34375 3.691406 -9.253906 3.265625 -9.078125 C 2.847656 -8.910156 2.535156 -8.6875 2.328125 -8.40625 C 2.128906 -8.125 2.03125 -7.828125 2.03125 -7.515625 C 2.03125 -7.097656 2.171875 -6.765625 2.453125 -6.515625 C 2.742188 -6.265625 3.144531 -6.070312 3.65625 -5.9375 L 5.828125 -5.40625 C 6.703125 -5.1875 7.378906 -4.878906 7.859375 -4.484375 C 8.335938 -4.097656 8.578125 -3.554688 8.578125 -2.859375 C 8.578125 -2.242188 8.40625 -1.707031 8.0625 -1.25 C 7.726562 -0.800781 7.257812 -0.453125 6.65625 -0.203125 C 6.0625 0.0351562 5.367188 0.15625 4.578125 0.15625 C 4.109375 0.15625 3.648438 0.101562 3.203125 0 C 2.765625 -0.09375 2.367188 -0.207031 2.015625 -0.34375 C 1.660156 -0.476562 1.375 -0.613281 1.15625 -0.75 L 1.40625 -1.703125 C 1.625 -1.578125 1.894531 -1.441406 2.21875 -1.296875 C 2.550781 -1.160156 2.921875 -1.039062 3.328125 -0.9375 C 3.734375 -0.84375 4.15625 -0.796875 4.59375 -0.796875 C 5.46875 -0.796875 6.175781 -0.972656 6.71875 -1.328125 C 7.257812 -1.679688 7.53125 -2.164062 7.53125 -2.78125 C 7.53125 -3.226562 7.347656 -3.582031 6.984375 -3.84375 C 6.628906 -4.113281 6.109375 -4.332031 5.421875 -4.5 Z M 5.421875 -4.5 "/></g></g></g><g fill="#ffffff" fill-opacity="1"><g transform="translate(9.988188, 14.260892)"><g><path d="M 2.4375 -7.8125 L 2.4375 -1.71875 C 2.4375 -1.425781 2.488281 -1.1875 2.59375 -1 C 2.695312 -0.820312 2.882812 -0.734375 3.15625 -0.734375 C 3.300781 -0.734375 3.453125 -0.765625 3.609375 -0.828125 C 3.765625 -0.898438 3.894531 -0.976562 4 -1.0625 L 4.140625 -0.234375 C 4.023438 -0.148438 3.84375 -0.0664062 3.59375 0.015625 C 3.34375 0.109375 3.082031 0.15625 2.8125 0.15625 C 1.882812 0.15625 1.421875 -0.40625 1.421875 -1.53125 L 1.421875 -7.8125 Z M 1.203125 -10.03125 C 1.203125 -10.289062 1.269531 -10.46875 1.40625 -10.5625 C 1.539062 -10.664062 1.71875 -10.71875 1.9375 -10.71875 C 2.144531 -10.71875 2.3125 -10.664062 2.4375 -10.5625 C 2.570312 -10.46875 2.640625 -10.289062 2.640625 -10.03125 C 2.640625 -9.789062 2.570312 -9.613281 2.4375 -9.5 C 2.3125 -9.394531 2.144531 -9.34375 1.9375 -9.34375 C 1.71875 -9.34375 1.539062 -9.394531 1.40625 -9.5 C 1.269531 -9.613281 1.203125 -9.789062 1.203125 -10.03125 Z M 1.203125 -10.03125 "/></g></g></g><g fill="#ffffff" fill-opacity="1"><g transform="translate(14.456586, 14.260892)"><g><path d="M 6.828125 -7.359375 L 6.5625 -6.46875 C 6.25 -6.625 5.859375 -6.757812 5.390625 -6.875 C 4.921875 -7 4.460938 -7.0625 4.015625 -7.0625 C 3.378906 -7.0625 2.859375 -6.929688 2.453125 -6.671875 C 2.046875 -6.410156 1.84375 -6.054688 1.84375 -5.609375 C 1.84375 -5.253906 1.957031 -5.003906 2.1875 -4.859375 C 2.425781 -4.722656 2.769531 -4.601562 3.21875 -4.5 L 4.9375 -4.109375 C 5.582031 -3.972656 6.070312 -3.753906 6.40625 -3.453125 C 6.75 -3.148438 6.921875 -2.734375 6.921875 -2.203125 C 6.921875 -1.523438 6.660156 -0.960938 6.140625 -0.515625 C 5.617188 -0.0664062 4.875 0.15625 3.90625 0.15625 C 3.25 0.15625 2.671875 0.0820312 2.171875 -0.0625 C 1.679688 -0.21875 1.289062 -0.367188 1 -0.515625 L 1.21875 -1.421875 C 1.519531 -1.265625 1.894531 -1.109375 2.34375 -0.953125 C 2.800781 -0.796875 3.3125 -0.71875 3.875 -0.71875 C 4.539062 -0.71875 5.046875 -0.851562 5.390625 -1.125 C 5.742188 -1.394531 5.921875 -1.726562 5.921875 -2.125 C 5.921875 -2.457031 5.78125 -2.703125 5.5 -2.859375 C 5.226562 -3.015625 4.875 -3.140625 4.4375 -3.234375 L 2.78125 -3.609375 C 2.15625 -3.765625 1.671875 -3.984375 1.328125 -4.265625 C 0.984375 -4.546875 0.8125 -4.976562 0.8125 -5.5625 C 0.8125 -6.257812 1.101562 -6.832031 1.6875 -7.28125 C 2.269531 -7.726562 3.066406 -7.953125 4.078125 -7.953125 C 4.410156 -7.953125 4.75 -7.921875 5.09375 -7.859375 C 5.445312 -7.796875 5.773438 -7.722656 6.078125 -7.640625 C 6.390625 -7.554688 6.640625 -7.460938 6.828125 -7.359375 Z M 6.828125 -7.359375 "/></g></g></g><g fill="#ffffff" fill-opacity="1"><g transform="translate(22.21277, 14.260892)"><g><path d="M 2.0625 -9.796875 L 2.96875 -9.796875 L 2.96875 -7.8125 L 6.21875 -7.8125 L 6.21875 -6.96875 L 2.953125 -6.96875 L 2.953125 -2.40625 C 2.953125 -1.3125 3.441406 -0.765625 4.421875 -0.765625 C 4.734375 -0.765625 5.0625 -0.820312 5.40625 -0.9375 C 5.757812 -1.0625 6.050781 -1.207031 6.28125 -1.375 L 6.625 -0.5625 C 6.3125 -0.351562 5.941406 -0.179688 5.515625 -0.046875 C 5.097656 0.0859375 4.640625 0.15625 4.140625 0.15625 C 3.453125 0.15625 2.910156 -0.046875 2.515625 -0.453125 C 2.128906 -0.867188 1.9375 -1.457031 1.9375 -2.21875 L 1.9375 -6.96875 L 0.390625 -6.96875 L 0.390625 -7.8125 L 1.953125 -7.8125 Z M 2.0625 -9.796875 "/></g></g></g><g fill="#ffffff" fill-opacity="1"><g transform="translate(29.266563, 14.260892)"><g><path d="M 7.78125 -1.609375 L 8.21875 -0.84375 C 7.820312 -0.53125 7.351562 -0.273438 6.8125 -0.078125 C 6.269531 0.109375 5.671875 0.203125 5.015625 0.203125 C 4.035156 0.203125 3.234375 0.0195312 2.609375 -0.34375 C 1.992188 -0.707031 1.539062 -1.203125 1.25 -1.828125 C 0.96875 -2.453125 0.828125 -3.140625 0.828125 -3.890625 C 0.828125 -4.640625 0.988281 -5.328125 1.3125 -5.953125 C 1.644531 -6.585938 2.113281 -7.085938 2.71875 -7.453125 C 3.332031 -7.828125 4.0625 -8.015625 4.90625 -8.015625 C 5.695312 -8.015625 6.34375 -7.867188 6.84375 -7.578125 C 7.351562 -7.285156 7.726562 -6.890625 7.96875 -6.390625 C 8.207031 -5.898438 8.328125 -5.359375 8.328125 -4.765625 C 8.328125 -4.546875 8.316406 -4.320312 8.296875 -4.09375 C 8.273438 -3.863281 8.242188 -3.679688 8.203125 -3.546875 L 1.859375 -3.546875 C 1.890625 -3.003906 2.019531 -2.515625 2.25 -2.078125 C 2.488281 -1.640625 2.835938 -1.289062 3.296875 -1.03125 C 3.753906 -0.78125 4.335938 -0.65625 5.046875 -0.65625 C 5.628906 -0.65625 6.148438 -0.75 6.609375 -0.9375 C 7.066406 -1.132812 7.457031 -1.359375 7.78125 -1.609375 Z M 7.3125 -4.359375 C 7.320312 -4.441406 7.332031 -4.53125 7.34375 -4.625 C 7.351562 -4.71875 7.359375 -4.816406 7.359375 -4.921875 C 7.359375 -5.316406 7.269531 -5.679688 7.09375 -6.015625 C 6.925781 -6.359375 6.660156 -6.632812 6.296875 -6.84375 C 5.929688 -7.050781 5.460938 -7.15625 4.890625 -7.15625 C 4.273438 -7.15625 3.75 -7.023438 3.3125 -6.765625 C 2.875 -6.515625 2.53125 -6.175781 2.28125 -5.75 C 2.039062 -5.332031 1.90625 -4.867188 1.875 -4.359375 Z M 7.3125 -4.359375 "/></g></g></g><g fill="#ffffff" fill-opacity="1"><g transform="translate(38.472359, 14.260892)"><g><path d="M 1.421875 -7.8125 L 2.4375 -7.8125 L 2.4375 -6.34375 C 2.695312 -6.820312 3.054688 -7.207031 3.515625 -7.5 C 3.972656 -7.800781 4.53125 -7.953125 5.1875 -7.953125 C 5.925781 -7.953125 6.507812 -7.785156 6.9375 -7.453125 C 7.363281 -7.128906 7.671875 -6.675781 7.859375 -6.09375 C 8.097656 -6.625 8.460938 -7.066406 8.953125 -7.421875 C 9.441406 -7.773438 10.050781 -7.953125 10.78125 -7.953125 C 11.457031 -7.953125 12.003906 -7.796875 12.421875 -7.484375 C 12.847656 -7.179688 13.160156 -6.769531 13.359375 -6.25 C 13.566406 -5.738281 13.671875 -5.15625 13.671875 -4.5 L 13.671875 -1.71875 C 13.671875 -1.414062 13.71875 -1.175781 13.8125 -1 C 13.914062 -0.820312 14.101562 -0.734375 14.375 -0.734375 C 14.507812 -0.734375 14.648438 -0.757812 14.796875 -0.8125 C 14.941406 -0.875 15.085938 -0.957031 15.234375 -1.0625 L 15.375 -0.234375 C 15.207031 -0.140625 15 -0.0507812 14.75 0.03125 C 14.507812 0.113281 14.273438 0.15625 14.046875 0.15625 C 13.117188 0.15625 12.65625 -0.40625 12.65625 -1.53125 L 12.65625 -4.359375 C 12.65625 -5.117188 12.476562 -5.742188 12.125 -6.234375 C 11.78125 -6.734375 11.222656 -6.984375 10.453125 -6.984375 C 10.015625 -6.984375 9.628906 -6.890625 9.296875 -6.703125 C 8.972656 -6.523438 8.707031 -6.285156 8.5 -5.984375 C 8.289062 -5.679688 8.140625 -5.347656 8.046875 -4.984375 L 8.046875 0 L 7.03125 0 L 7.03125 -4.359375 C 7.03125 -5.128906 6.859375 -5.757812 6.515625 -6.25 C 6.179688 -6.738281 5.632812 -6.984375 4.875 -6.984375 C 4.207031 -6.984375 3.664062 -6.785156 3.25 -6.390625 C 2.84375 -5.992188 2.570312 -5.523438 2.4375 -4.984375 L 2.4375 0 L 1.421875 0 Z M 1.421875 -7.8125 "/></g></g></g><g fill="#ffffff" fill-opacity="1"><g transform="translate(54.014615, 14.260892)"><g><path d="M 8.3125 -7.8125 L 8.3125 -1.71875 C 8.3125 -1.414062 8.363281 -1.175781 8.46875 -1 C 8.582031 -0.820312 8.769531 -0.734375 9.03125 -0.734375 C 9.1875 -0.734375 9.332031 -0.757812 9.46875 -0.8125 C 9.601562 -0.875 9.75 -0.957031 9.90625 -1.0625 L 10.015625 -0.234375 C 9.859375 -0.140625 9.660156 -0.0507812 9.421875 0.03125 C 9.179688 0.113281 8.941406 0.15625 8.703125 0.15625 C 8.304688 0.15625 8 0.0507812 7.78125 -0.15625 C 7.5625 -0.363281 7.421875 -0.648438 7.359375 -1.015625 C 7.078125 -0.703125 6.703125 -0.425781 6.234375 -0.1875 C 5.765625 0.0390625 5.238281 0.15625 4.65625 0.15625 C 3.894531 0.15625 3.226562 -0.015625 2.65625 -0.359375 C 2.082031 -0.703125 1.632812 -1.175781 1.3125 -1.78125 C 1 -2.394531 0.84375 -3.09375 0.84375 -3.875 C 0.84375 -4.664062 1 -5.367188 1.3125 -5.984375 C 1.632812 -6.597656 2.082031 -7.078125 2.65625 -7.421875 C 3.226562 -7.773438 3.894531 -7.953125 4.65625 -7.953125 C 5.21875 -7.953125 5.726562 -7.84375 6.1875 -7.625 C 6.644531 -7.414062 7.015625 -7.171875 7.296875 -6.890625 L 7.296875 -7.8125 Z M 7.296875 -1.8125 L 7.296875 -5.96875 C 7.066406 -6.238281 6.738281 -6.484375 6.3125 -6.703125 C 5.882812 -6.921875 5.414062 -7.03125 4.90625 -7.03125 C 4.289062 -7.03125 3.753906 -6.894531 3.296875 -6.625 C 2.847656 -6.363281 2.5 -5.992188 2.25 -5.515625 C 2 -5.046875 1.875 -4.5 1.875 -3.875 C 1.875 -3.257812 2 -2.71875 2.25 -2.25 C 2.5 -1.78125 2.847656 -1.414062 3.296875 -1.15625 C 3.753906 -0.894531 4.289062 -0.765625 4.90625 -0.765625 C 5.40625 -0.765625 5.867188 -0.875 6.296875 -1.09375 C 6.722656 -1.3125 7.054688 -1.550781 7.296875 -1.8125 Z M 7.296875 -1.8125 "/></g></g></g><g fill="#ffffff" fill-opacity="1"><g transform="translate(64.311361, 14.260892)"><g/></g></g><g fill="#ffffff" fill-opacity="1"><g transform="translate(68.047481, 14.260892)"><g><path d="M 7.3125 -10.609375 L 8.328125 -10.609375 L 8.328125 -1.703125 C 8.328125 -1.390625 8.378906 -1.148438 8.484375 -0.984375 C 8.585938 -0.816406 8.773438 -0.734375 9.046875 -0.734375 C 9.191406 -0.734375 9.332031 -0.757812 9.46875 -0.8125 C 9.601562 -0.875 9.75 -0.957031 9.90625 -1.0625 L 10.03125 -0.234375 C 9.875 -0.140625 9.671875 -0.0507812 9.421875 0.03125 C 9.171875 0.113281 8.929688 0.15625 8.703125 0.15625 C 7.929688 0.15625 7.476562 -0.21875 7.34375 -0.96875 C 7.0625 -0.664062 6.691406 -0.398438 6.234375 -0.171875 C 5.785156 0.046875 5.257812 0.15625 4.65625 0.15625 C 3.90625 0.15625 3.238281 -0.015625 2.65625 -0.359375 C 2.082031 -0.710938 1.632812 -1.195312 1.3125 -1.8125 C 1 -2.425781 0.84375 -3.125 0.84375 -3.90625 C 0.84375 -4.695312 1 -5.394531 1.3125 -6 C 1.632812 -6.613281 2.082031 -7.09375 2.65625 -7.4375 C 3.238281 -7.78125 3.90625 -7.953125 4.65625 -7.953125 C 5.226562 -7.953125 5.738281 -7.84375 6.1875 -7.625 C 6.644531 -7.414062 7.019531 -7.171875 7.3125 -6.890625 Z M 1.859375 -3.90625 C 1.859375 -3.289062 1.984375 -2.742188 2.234375 -2.265625 C 2.484375 -1.796875 2.835938 -1.425781 3.296875 -1.15625 C 3.753906 -0.894531 4.289062 -0.765625 4.90625 -0.765625 C 5.425781 -0.765625 5.898438 -0.875 6.328125 -1.09375 C 6.753906 -1.320312 7.082031 -1.566406 7.3125 -1.828125 L 7.3125 -5.9375 C 7.070312 -6.21875 6.738281 -6.46875 6.3125 -6.6875 C 5.882812 -6.914062 5.414062 -7.03125 4.90625 -7.03125 C 4.289062 -7.03125 3.753906 -6.898438 3.296875 -6.640625 C 2.847656 -6.378906 2.492188 -6.015625 2.234375 -5.546875 C 1.984375 -5.078125 1.859375 -4.53125 1.859375 -3.90625 Z M 1.859375 -3.90625 "/></g></g></g><g fill="#ffffff" fill-opacity="1"><g transform="translate(78.359165, 14.260892)"><g><path d="M 7.78125 -1.609375 L 8.21875 -0.84375 C 7.820312 -0.53125 7.351562 -0.273438 6.8125 -0.078125 C 6.269531 0.109375 5.671875 0.203125 5.015625 0.203125 C 4.035156 0.203125 3.234375 0.0195312 2.609375 -0.34375 C 1.992188 -0.707031 1.539062 -1.203125 1.25 -1.828125 C 0.96875 -2.453125 0.828125 -3.140625 0.828125 -3.890625 C 0.828125 -4.640625 0.988281 -5.328125 1.3125 -5.953125 C 1.644531 -6.585938 2.113281 -7.085938 2.71875 -7.453125 C 3.332031 -7.828125 4.0625 -8.015625 4.90625 -8.015625 C 5.695312 -8.015625 6.34375 -7.867188 6.84375 -7.578125 C 7.351562 -7.285156 7.726562 -6.890625 7.96875 -6.390625 C 8.207031 -5.898438 8.328125 -5.359375 8.328125 -4.765625 C 8.328125 -4.546875 8.316406 -4.320312 8.296875 -4.09375 C 8.273438 -3.863281 8.242188 -3.679688 8.203125 -3.546875 L 1.859375 -3.546875 C 1.890625 -3.003906 2.019531 -2.515625 2.25 -2.078125 C 2.488281 -1.640625 2.835938 -1.289062 3.296875 -1.03125 C 3.753906 -0.78125 4.335938 -0.65625 5.046875 -0.65625 C 5.628906 -0.65625 6.148438 -0.75 6.609375 -0.9375 C 7.066406 -1.132812 7.457031 -1.359375 7.78125 -1.609375 Z M 7.3125 -4.359375 C 7.320312 -4.441406 7.332031 -4.53125 7.34375 -4.625 C 7.351562 -4.71875 7.359375 -4.816406 7.359375 -4.921875 C 7.359375 -5.316406 7.269531 -5.679688 7.09375 -6.015625 C 6.925781 -6.359375 6.660156 -6.632812 6.296875 -6.84375 C 5.929688 -7.050781 5.460938 -7.15625 4.890625 -7.15625 C 4.273438 -7.15625 3.75 -7.023438 3.3125 -6.765625 C 2.875 -6.515625 2.53125 -6.175781 2.28125 -5.75 C 2.039062 -5.332031 1.90625 -4.867188 1.875 -4.359375 Z M 7.3125 -4.359375 "/></g></g></g><g fill="#ffffff" fill-opacity="1"><g transform="translate(87.56496, 14.260892)"><g/></g></g><g fill="#ffffff" fill-opacity="1"><g transform="translate(91.301079, 14.260892)"><g><path d="M 5.96875 -5.375 L 10.640625 -5.375 L 10.640625 -1.171875 C 10.328125 -0.929688 9.9375 -0.707031 9.46875 -0.5 C 9.007812 -0.300781 8.515625 -0.140625 7.984375 -0.015625 C 7.453125 0.0976562 6.925781 0.15625 6.40625 0.15625 C 5.414062 0.15625 4.507812 -0.0507812 3.6875 -0.46875 C 2.863281 -0.882812 2.207031 -1.484375 1.71875 -2.265625 C 1.238281 -3.046875 1 -3.976562 1 -5.0625 C 1 -6.164062 1.238281 -7.109375 1.71875 -7.890625 C 2.207031 -8.671875 2.863281 -9.269531 3.6875 -9.6875 C 4.507812 -10.101562 5.414062 -10.3125 6.40625 -10.3125 C 7.226562 -10.3125 7.945312 -10.179688 8.5625 -9.921875 C 9.175781 -9.660156 9.738281 -9.3125 10.25 -8.875 L 9.71875 -8.09375 C 9.28125 -8.476562 8.796875 -8.78125 8.265625 -9 C 7.742188 -9.226562 7.128906 -9.34375 6.421875 -9.34375 C 5.617188 -9.34375 4.882812 -9.171875 4.21875 -8.828125 C 3.550781 -8.492188 3.019531 -8.007812 2.625 -7.375 C 2.238281 -6.738281 2.046875 -5.96875 2.046875 -5.0625 C 2.046875 -4.164062 2.238281 -3.398438 2.625 -2.765625 C 3.019531 -2.140625 3.550781 -1.65625 4.21875 -1.3125 C 4.894531 -0.976562 5.644531 -0.8125 6.46875 -0.8125 C 7.0625 -0.8125 7.640625 -0.894531 8.203125 -1.0625 C 8.773438 -1.226562 9.25 -1.441406 9.625 -1.703125 L 9.625 -4.484375 L 5.96875 -4.484375 Z M 5.96875 -5.375 "/></g></g></g><g fill="#ffffff" fill-opacity="1"><g transform="translate(103.092273, 14.260892)"><g><path d="M 7.78125 -1.609375 L 8.21875 -0.84375 C 7.820312 -0.53125 7.351562 -0.273438 6.8125 -0.078125 C 6.269531 0.109375 5.671875 0.203125 5.015625 0.203125 C 4.035156 0.203125 3.234375 0.0195312 2.609375 -0.34375 C 1.992188 -0.707031 1.539062 -1.203125 1.25 -1.828125 C 0.96875 -2.453125 0.828125 -3.140625 0.828125 -3.890625 C 0.828125 -4.640625 0.988281 -5.328125 1.3125 -5.953125 C 1.644531 -6.585938 2.113281 -7.085938 2.71875 -7.453125 C 3.332031 -7.828125 4.0625 -8.015625 4.90625 -8.015625 C 5.695312 -8.015625 6.34375 -7.867188 6.84375 -7.578125 C 7.351562 -7.285156 7.726562 -6.890625 7.96875 -6.390625 C 8.207031 -5.898438 8.328125 -5.359375 8.328125 -4.765625 C 8.328125 -4.546875 8.316406 -4.320312 8.296875 -4.09375 C 8.273438 -3.863281 8.242188 -3.679688 8.203125 -3.546875 L 1.859375 -3.546875 C 1.890625 -3.003906 2.019531 -2.515625 2.25 -2.078125 C 2.488281 -1.640625 2.835938 -1.289062 3.296875 -1.03125 C 3.753906 -0.78125 4.335938 -0.65625 5.046875 -0.65625 C 5.628906 -0.65625 6.148438 -0.75 6.609375 -0.9375 C 7.066406 -1.132812 7.457031 -1.359375 7.78125 -1.609375 Z M 7.3125 -4.359375 C 7.320312 -4.441406 7.332031 -4.53125 7.34375 -4.625 C 7.351562 -4.71875 7.359375 -4.816406 7.359375 -4.921875 C 7.359375 -5.316406 7.269531 -5.679688 7.09375 -6.015625 C 6.925781 -6.359375 6.660156 -6.632812 6.296875 -6.84375 C 5.929688 -7.050781 5.460938 -7.15625 4.890625 -7.15625 C 4.273438 -7.15625 3.75 -7.023438 3.3125 -6.765625 C 2.875 -6.515625 2.53125 -6.175781 2.28125 -5.75 C 2.039062 -5.332031 1.90625 -4.867188 1.875 -4.359375 Z M 7.3125 -4.359375 "/></g></g></g><g fill="#ffffff" fill-opacity="1"><g transform="translate(112.298075, 14.260892)"><g><path d="M 6.828125 -7.359375 L 6.5625 -6.46875 C 6.25 -6.625 5.859375 -6.757812 5.390625 -6.875 C 4.921875 -7 4.460938 -7.0625 4.015625 -7.0625 C 3.378906 -7.0625 2.859375 -6.929688 2.453125 -6.671875 C 2.046875 -6.410156 1.84375 -6.054688 1.84375 -5.609375 C 1.84375 -5.253906 1.957031 -5.003906 2.1875 -4.859375 C 2.425781 -4.722656 2.769531 -4.601562 3.21875 -4.5 L 4.9375 -4.109375 C 5.582031 -3.972656 6.070312 -3.753906 6.40625 -3.453125 C 6.75 -3.148438 6.921875 -2.734375 6.921875 -2.203125 C 6.921875 -1.523438 6.660156 -0.960938 6.140625 -0.515625 C 5.617188 -0.0664062 4.875 0.15625 3.90625 0.15625 C 3.25 0.15625 2.671875 0.0820312 2.171875 -0.0625 C 1.679688 -0.21875 1.289062 -0.367188 1 -0.515625 L 1.21875 -1.421875 C 1.519531 -1.265625 1.894531 -1.109375 2.34375 -0.953125 C 2.800781 -0.796875 3.3125 -0.71875 3.875 -0.71875 C 4.539062 -0.71875 5.046875 -0.851562 5.390625 -1.125 C 5.742188 -1.394531 5.921875 -1.726562 5.921875 -2.125 C 5.921875 -2.457031 5.78125 -2.703125 5.5 -2.859375 C 5.226562 -3.015625 4.875 -3.140625 4.4375 -3.234375 L 2.78125 -3.609375 C 2.15625 -3.765625 1.671875 -3.984375 1.328125 -4.265625 C 0.984375 -4.546875 0.8125 -4.976562 0.8125 -5.5625 C 0.8125 -6.257812 1.101562 -6.832031 1.6875 -7.28125 C 2.269531 -7.726562 3.066406 -7.953125 4.078125 -7.953125 C 4.410156 -7.953125 4.75 -7.921875 5.09375 -7.859375 C 5.445312 -7.796875 5.773438 -7.722656 6.078125 -7.640625 C 6.390625 -7.554688 6.640625 -7.460938 6.828125 -7.359375 Z M 6.828125 -7.359375 "/></g></g></g><g fill="#ffffff" fill-opacity="1"><g transform="translate(120.054252, 14.260892)"><g><path d="M 2.0625 -9.796875 L 2.96875 -9.796875 L 2.96875 -7.8125 L 6.21875 -7.8125 L 6.21875 -6.96875 L 2.953125 -6.96875 L 2.953125 -2.40625 C 2.953125 -1.3125 3.441406 -0.765625 4.421875 -0.765625 C 4.734375 -0.765625 5.0625 -0.820312 5.40625 -0.9375 C 5.757812 -1.0625 6.050781 -1.207031 6.28125 -1.375 L 6.625 -0.5625 C 6.3125 -0.351562 5.941406 -0.179688 5.515625 -0.046875 C 5.097656 0.0859375 4.640625 0.15625 4.140625 0.15625 C 3.453125 0.15625 2.910156 -0.046875 2.515625 -0.453125 C 2.128906 -0.867188 1.9375 -1.457031 1.9375 -2.21875 L 1.9375 -6.96875 L 0.390625 -6.96875 L 0.390625 -7.8125 L 1.953125 -7.8125 Z M 2.0625 -9.796875 "/></g></g></g><g fill="#ffffff" fill-opacity="1"><g transform="translate(127.108056, 14.260892)"><g><path d="M 2.4375 -7.8125 L 2.4375 -1.71875 C 2.4375 -1.425781 2.488281 -1.1875 2.59375 -1 C 2.695312 -0.820312 2.882812 -0.734375 3.15625 -0.734375 C 3.300781 -0.734375 3.453125 -0.765625 3.609375 -0.828125 C 3.765625 -0.898438 3.894531 -0.976562 4 -1.0625 L 4.140625 -0.234375 C 4.023438 -0.148438 3.84375 -0.0664062 3.59375 0.015625 C 3.34375 0.109375 3.082031 0.15625 2.8125 0.15625 C 1.882812 0.15625 1.421875 -0.40625 1.421875 -1.53125 L 1.421875 -7.8125 Z M 1.203125 -10.03125 C 1.203125 -10.289062 1.269531 -10.46875 1.40625 -10.5625 C 1.539062 -10.664062 1.71875 -10.71875 1.9375 -10.71875 C 2.144531 -10.71875 2.3125 -10.664062 2.4375 -10.5625 C 2.570312 -10.46875 2.640625 -10.289062 2.640625 -10.03125 C 2.640625 -9.789062 2.570312 -9.613281 2.4375 -9.5 C 2.3125 -9.394531 2.144531 -9.34375 1.9375 -9.34375 C 1.71875 -9.34375 1.539062 -9.394531 1.40625 -9.5 C 1.269531 -9.613281 1.203125 -9.789062 1.203125 -10.03125 Z M 1.203125 -10.03125 "/></g></g></g><g fill="#ffffff" fill-opacity="1"><g transform="translate(131.576454, 14.260892)"><g><path d="M 0.828125 -3.890625 C 0.828125 -4.679688 1 -5.390625 1.34375 -6.015625 C 1.695312 -6.640625 2.1875 -7.128906 2.8125 -7.484375 C 3.4375 -7.835938 4.148438 -8.015625 4.953125 -8.015625 C 5.773438 -8.015625 6.5 -7.835938 7.125 -7.484375 C 7.75 -7.128906 8.238281 -6.640625 8.59375 -6.015625 C 8.945312 -5.390625 9.125 -4.679688 9.125 -3.890625 C 9.125 -3.109375 8.945312 -2.40625 8.59375 -1.78125 C 8.238281 -1.164062 7.75 -0.679688 7.125 -0.328125 C 6.5 0.0234375 5.773438 0.203125 4.953125 0.203125 C 4.148438 0.203125 3.4375 0.0234375 2.8125 -0.328125 C 2.1875 -0.679688 1.695312 -1.164062 1.34375 -1.78125 C 1 -2.40625 0.828125 -3.109375 0.828125 -3.890625 Z M 1.8125 -3.890625 C 1.8125 -3.285156 1.941406 -2.742188 2.203125 -2.265625 C 2.472656 -1.796875 2.84375 -1.421875 3.3125 -1.140625 C 3.789062 -0.867188 4.335938 -0.734375 4.953125 -0.734375 C 5.585938 -0.734375 6.140625 -0.867188 6.609375 -1.140625 C 7.085938 -1.421875 7.460938 -1.796875 7.734375 -2.265625 C 8.003906 -2.742188 8.140625 -3.285156 8.140625 -3.890625 C 8.140625 -4.492188 8.003906 -5.035156 7.734375 -5.515625 C 7.460938 -6.003906 7.085938 -6.382812 6.609375 -6.65625 C 6.140625 -6.9375 5.585938 -7.078125 4.953125 -7.078125 C 4.335938 -7.078125 3.789062 -6.9375 3.3125 -6.65625 C 2.84375 -6.382812 2.472656 -6.003906 2.203125 -5.515625 C 1.941406 -5.035156 1.8125 -4.492188 1.8125 -3.890625 Z M 6.71875 -11.0625 L 5.375 -9.015625 L 4.453125 -9.015625 L 5.671875 -11.0625 Z M 6.71875 -11.0625 "/></g></g></g><g fill="#ffffff" fill-opacity="1"><g transform="translate(141.529465, 14.260892)"><g><path d="M 1.421875 -7.8125 L 2.4375 -7.8125 L 2.4375 -6.375 C 2.707031 -6.863281 3.082031 -7.25 3.5625 -7.53125 C 4.050781 -7.8125 4.625 -7.953125 5.28125 -7.953125 C 5.957031 -7.953125 6.515625 -7.796875 6.953125 -7.484375 C 7.398438 -7.179688 7.726562 -6.769531 7.9375 -6.25 C 8.15625 -5.738281 8.265625 -5.15625 8.265625 -4.5 L 8.265625 -1.71875 C 8.265625 -1.414062 8.316406 -1.175781 8.421875 -1 C 8.535156 -0.820312 8.722656 -0.734375 8.984375 -0.734375 C 9.117188 -0.734375 9.257812 -0.757812 9.40625 -0.8125 C 9.5625 -0.875 9.710938 -0.957031 9.859375 -1.0625 L 9.984375 -0.234375 C 9.804688 -0.128906 9.597656 -0.0390625 9.359375 0.03125 C 9.128906 0.113281 8.894531 0.15625 8.65625 0.15625 C 7.71875 0.15625 7.25 -0.40625 7.25 -1.53125 L 7.25 -4.359375 C 7.25 -5.117188 7.0625 -5.742188 6.6875 -6.234375 C 6.3125 -6.734375 5.738281 -6.984375 4.96875 -6.984375 C 4.300781 -6.984375 3.742188 -6.789062 3.296875 -6.40625 C 2.859375 -6.019531 2.570312 -5.554688 2.4375 -5.015625 L 2.4375 0 L 1.421875 0 Z M 1.421875 -7.8125 "/></g></g></g><g fill="#ffffff" fill-opacity="1"><g transform="translate(151.661824, 14.260892)"><g/></g></g><g fill="#ffffff" fill-opacity="1"><g transform="translate(155.397943, 14.260892)"><g><path d="M 11.46875 0 L 11.46875 -8.53125 L 7.203125 -3.359375 L 6.953125 -3.359375 L 2.6875 -8.53125 L 2.6875 0 L 1.671875 0 L 1.671875 -10.15625 L 2.609375 -10.15625 L 7.078125 -4.734375 L 11.5625 -10.15625 L 12.484375 -10.15625 L 12.484375 0 Z M 11.46875 0 "/></g></g></g><g fill="#ffffff" fill-opacity="1"><g transform="translate(169.565305, 14.260892)"><g><path d="M 2.4375 -7.8125 L 2.4375 -1.71875 C 2.4375 -1.425781 2.488281 -1.1875 2.59375 -1 C 2.695312 -0.820312 2.882812 -0.734375 3.15625 -0.734375 C 3.300781 -0.734375 3.453125 -0.765625 3.609375 -0.828125 C 3.765625 -0.898438 3.894531 -0.976562 4 -1.0625 L 4.140625 -0.234375 C 4.023438 -0.148438 3.84375 -0.0664062 3.59375 0.015625 C 3.34375 0.109375 3.082031 0.15625 2.8125 0.15625 C 1.882812 0.15625 1.421875 -0.40625 1.421875 -1.53125 L 1.421875 -7.8125 Z M 1.203125 -10.03125 C 1.203125 -10.289062 1.269531 -10.46875 1.40625 -10.5625 C 1.539062 -10.664062 1.71875 -10.71875 1.9375 -10.71875 C 2.144531 -10.71875 2.3125 -10.664062 2.4375 -10.5625 C 2.570312 -10.46875 2.640625 -10.289062 2.640625 -10.03125 C 2.640625 -9.789062 2.570312 -9.613281 2.4375 -9.5 C 2.3125 -9.394531 2.144531 -9.34375 1.9375 -9.34375 C 1.71875 -9.34375 1.539062 -9.394531 1.40625 -9.5 C 1.269531 -9.613281 1.203125 -9.789062 1.203125 -10.03125 Z M 1.203125 -10.03125 "/></g></g></g><g fill="#ffffff" fill-opacity="1"><g transform="translate(174.033702, 14.260892)"><g><path d="M 1.421875 -7.8125 L 2.4375 -7.8125 L 2.4375 -6.375 C 2.707031 -6.863281 3.082031 -7.25 3.5625 -7.53125 C 4.050781 -7.8125 4.625 -7.953125 5.28125 -7.953125 C 5.957031 -7.953125 6.515625 -7.796875 6.953125 -7.484375 C 7.398438 -7.179688 7.726562 -6.769531 7.9375 -6.25 C 8.15625 -5.738281 8.265625 -5.15625 8.265625 -4.5 L 8.265625 -1.71875 C 8.265625 -1.414062 8.316406 -1.175781 8.421875 -1 C 8.535156 -0.820312 8.722656 -0.734375 8.984375 -0.734375 C 9.117188 -0.734375 9.257812 -0.757812 9.40625 -0.8125 C 9.5625 -0.875 9.710938 -0.957031 9.859375 -1.0625 L 9.984375 -0.234375 C 9.804688 -0.128906 9.597656 -0.0390625 9.359375 0.03125 C 9.128906 0.113281 8.894531 0.15625 8.65625 0.15625 C 7.71875 0.15625 7.25 -0.40625 7.25 -1.53125 L 7.25 -4.359375 C 7.25 -5.117188 7.0625 -5.742188 6.6875 -6.234375 C 6.3125 -6.734375 5.738281 -6.984375 4.96875 -6.984375 C 4.300781 -6.984375 3.742188 -6.789062 3.296875 -6.40625 C 2.859375 -6.019531 2.570312 -5.554688 2.4375 -5.015625 L 2.4375 0 L 1.421875 0 Z M 1.421875 -7.8125 "/></g></g></g><g fill="#ffffff" fill-opacity="1"><g transform="translate(184.166061, 14.260892)"><g><path d="M 7.78125 -1.609375 L 8.21875 -0.84375 C 7.820312 -0.53125 7.351562 -0.273438 6.8125 -0.078125 C 6.269531 0.109375 5.671875 0.203125 5.015625 0.203125 C 4.035156 0.203125 3.234375 0.0195312 2.609375 -0.34375 C 1.992188 -0.707031 1.539062 -1.203125 1.25 -1.828125 C 0.96875 -2.453125 0.828125 -3.140625 0.828125 -3.890625 C 0.828125 -4.640625 0.988281 -5.328125 1.3125 -5.953125 C 1.644531 -6.585938 2.113281 -7.085938 2.71875 -7.453125 C 3.332031 -7.828125 4.0625 -8.015625 4.90625 -8.015625 C 5.695312 -8.015625 6.34375 -7.867188 6.84375 -7.578125 C 7.351562 -7.285156 7.726562 -6.890625 7.96875 -6.390625 C 8.207031 -5.898438 8.328125 -5.359375 8.328125 -4.765625 C 8.328125 -4.546875 8.316406 -4.320312 8.296875 -4.09375 C 8.273438 -3.863281 8.242188 -3.679688 8.203125 -3.546875 L 1.859375 -3.546875 C 1.890625 -3.003906 2.019531 -2.515625 2.25 -2.078125 C 2.488281 -1.640625 2.835938 -1.289062 3.296875 -1.03125 C 3.753906 -0.78125 4.335938 -0.65625 5.046875 -0.65625 C 5.628906 -0.65625 6.148438 -0.75 6.609375 -0.9375 C 7.066406 -1.132812 7.457031 -1.359375 7.78125 -1.609375 Z M 7.3125 -4.359375 C 7.320312 -4.441406 7.332031 -4.53125 7.34375 -4.625 C 7.351562 -4.71875 7.359375 -4.816406 7.359375 -4.921875 C 7.359375 -5.316406 7.269531 -5.679688 7.09375 -6.015625 C 6.925781 -6.359375 6.660156 -6.632812 6.296875 -6.84375 C 5.929688 -7.050781 5.460938 -7.15625 4.890625 -7.15625 C 4.273438 -7.15625 3.75 -7.023438 3.3125 -6.765625 C 2.875 -6.515625 2.53125 -6.175781 2.28125 -5.75 C 2.039062 -5.332031 1.90625 -4.867188 1.875 -4.359375 Z M 7.3125 -4.359375 "/></g></g></g><g fill="#ffffff" fill-opacity="1"><g transform="translate(193.371848, 14.260892)"><g><path d="M 1.96875 0 L 1.96875 -6.078125 C 1.96875 -6.378906 1.914062 -6.617188 1.8125 -6.796875 C 1.707031 -6.972656 1.519531 -7.0625 1.25 -7.0625 C 1.101562 -7.0625 0.953125 -7.03125 0.796875 -6.96875 C 0.640625 -6.90625 0.503906 -6.832031 0.390625 -6.75 L 0.265625 -7.5625 C 0.378906 -7.65625 0.5625 -7.742188 0.8125 -7.828125 C 1.0625 -7.910156 1.316406 -7.953125 1.578125 -7.953125 C 2.503906 -7.953125 2.972656 -7.410156 2.984375 -6.328125 C 3.191406 -6.804688 3.457031 -7.195312 3.78125 -7.5 C 4.113281 -7.800781 4.554688 -7.953125 5.109375 -7.953125 C 5.472656 -7.953125 5.773438 -7.894531 6.015625 -7.78125 C 6.253906 -7.664062 6.429688 -7.507812 6.546875 -7.3125 L 6.28125 -6.453125 C 6.050781 -6.804688 5.617188 -6.984375 4.984375 -6.984375 C 4.585938 -6.984375 4.253906 -6.867188 3.984375 -6.640625 C 3.722656 -6.421875 3.515625 -6.132812 3.359375 -5.78125 C 3.210938 -5.4375 3.085938 -5.0625 2.984375 -4.65625 L 2.984375 0 Z M 1.96875 0 "/></g></g></g><g fill="#ffffff" fill-opacity="1"><g transform="translate(200.216428, 14.260892)"><g><path d="M 8.3125 -7.8125 L 8.3125 -1.71875 C 8.3125 -1.414062 8.363281 -1.175781 8.46875 -1 C 8.582031 -0.820312 8.769531 -0.734375 9.03125 -0.734375 C 9.1875 -0.734375 9.332031 -0.757812 9.46875 -0.8125 C 9.601562 -0.875 9.75 -0.957031 9.90625 -1.0625 L 10.015625 -0.234375 C 9.859375 -0.140625 9.660156 -0.0507812 9.421875 0.03125 C 9.179688 0.113281 8.941406 0.15625 8.703125 0.15625 C 8.304688 0.15625 8 0.0507812 7.78125 -0.15625 C 7.5625 -0.363281 7.421875 -0.648438 7.359375 -1.015625 C 7.078125 -0.703125 6.703125 -0.425781 6.234375 -0.1875 C 5.765625 0.0390625 5.238281 0.15625 4.65625 0.15625 C 3.894531 0.15625 3.226562 -0.015625 2.65625 -0.359375 C 2.082031 -0.703125 1.632812 -1.175781 1.3125 -1.78125 C 1 -2.394531 0.84375 -3.09375 0.84375 -3.875 C 0.84375 -4.664062 1 -5.367188 1.3125 -5.984375 C 1.632812 -6.597656 2.082031 -7.078125 2.65625 -7.421875 C 3.226562 -7.773438 3.894531 -7.953125 4.65625 -7.953125 C 5.21875 -7.953125 5.726562 -7.84375 6.1875 -7.625 C 6.644531 -7.414062 7.015625 -7.171875 7.296875 -6.890625 L 7.296875 -7.8125 Z M 7.296875 -1.8125 L 7.296875 -5.96875 C 7.066406 -6.238281 6.738281 -6.484375 6.3125 -6.703125 C 5.882812 -6.921875 5.414062 -7.03125 4.90625 -7.03125 C 4.289062 -7.03125 3.753906 -6.894531 3.296875 -6.625 C 2.847656 -6.363281 2.5 -5.992188 2.25 -5.515625 C 2 -5.046875 1.875 -4.5 1.875 -3.875 C 1.875 -3.257812 2 -2.71875 2.25 -2.25 C 2.5 -1.78125 2.847656 -1.414062 3.296875 -1.15625 C 3.753906 -0.894531 4.289062 -0.765625 4.90625 -0.765625 C 5.40625 -0.765625 5.867188 -0.875 6.296875 -1.09375 C 6.722656 -1.3125 7.054688 -1.550781 7.296875 -1.8125 Z M 7.296875 -1.8125 "/></g></g></g><g fill="#ffffff" fill-opacity="1"><g transform="translate(210.513175, 14.260892)"><g/></g></g><g fill="#ffffff" fill-opacity="1"><g transform="translate(214.249294, 14.260892)"><g><path d="M 11.46875 0 L 11.46875 -8.53125 L 7.203125 -3.359375 L 6.953125 -3.359375 L 2.6875 -8.53125 L 2.6875 0 L 1.671875 0 L 1.671875 -10.15625 L 2.609375 -10.15625 L 7.078125 -4.734375 L 11.5625 -10.15625 L 12.484375 -10.15625 L 12.484375 0 Z M 11.46875 0 "/></g></g></g><g fill="#ffffff" fill-opacity="1"><g transform="translate(228.416656, 14.260892)"><g><path d="M 7.125 -7.8125 L 8.140625 -7.8125 L 8.140625 -1.71875 C 8.140625 -1.425781 8.191406 -1.1875 8.296875 -1 C 8.398438 -0.820312 8.582031 -0.734375 8.84375 -0.734375 C 8.976562 -0.734375 9.117188 -0.757812 9.265625 -0.8125 C 9.410156 -0.875 9.5625 -0.957031 9.71875 -1.0625 L 9.84375 -0.234375 C 9.6875 -0.128906 9.484375 -0.0390625 9.234375 0.03125 C 8.992188 0.113281 8.753906 0.15625 8.515625 0.15625 C 7.671875 0.15625 7.207031 -0.3125 7.125 -1.25 C 6.84375 -0.8125 6.457031 -0.46875 5.96875 -0.21875 C 5.488281 0.03125 4.921875 0.15625 4.265625 0.15625 C 3.597656 0.15625 3.039062 0.0078125 2.59375 -0.28125 C 2.15625 -0.582031 1.828125 -0.988281 1.609375 -1.5 C 1.390625 -2.019531 1.28125 -2.613281 1.28125 -3.28125 L 1.28125 -7.8125 L 2.296875 -7.8125 L 2.296875 -3.421875 C 2.296875 -2.628906 2.472656 -1.992188 2.828125 -1.515625 C 3.191406 -1.035156 3.773438 -0.796875 4.578125 -0.796875 C 5.253906 -0.796875 5.804688 -0.972656 6.234375 -1.328125 C 6.671875 -1.691406 6.96875 -2.101562 7.125 -2.5625 Z M 7.125 -7.8125 "/></g></g></g><g fill="#ffffff" fill-opacity="1"><g transform="translate(238.534054, 14.260892)"><g><path d="M 1.421875 -7.8125 L 2.4375 -7.8125 L 2.4375 -6.375 C 2.707031 -6.863281 3.082031 -7.25 3.5625 -7.53125 C 4.050781 -7.8125 4.625 -7.953125 5.28125 -7.953125 C 5.957031 -7.953125 6.515625 -7.796875 6.953125 -7.484375 C 7.398438 -7.179688 7.726562 -6.769531 7.9375 -6.25 C 8.15625 -5.738281 8.265625 -5.15625 8.265625 -4.5 L 8.265625 -1.71875 C 8.265625 -1.414062 8.316406 -1.175781 8.421875 -1 C 8.535156 -0.820312 8.722656 -0.734375 8.984375 -0.734375 C 9.117188 -0.734375 9.257812 -0.757812 9.40625 -0.8125 C 9.5625 -0.875 9.710938 -0.957031 9.859375 -1.0625 L 9.984375 -0.234375 C 9.804688 -0.128906 9.597656 -0.0390625 9.359375 0.03125 C 9.128906 0.113281 8.894531 0.15625 8.65625 0.15625 C 7.71875 0.15625 7.25 -0.40625 7.25 -1.53125 L 7.25 -4.359375 C 7.25 -5.117188 7.0625 -5.742188 6.6875 -6.234375 C 6.3125 -6.734375 5.738281 -6.984375 4.96875 -6.984375 C 4.300781 -6.984375 3.742188 -6.789062 3.296875 -6.40625 C 2.859375 -6.019531 2.570312 -5.554688 2.4375 -5.015625 L 2.4375 0 L 1.421875 0 Z M 1.421875 -7.8125 "/></g></g></g><g fill="#ffffff" fill-opacity="1"><g transform="translate(248.666413, 14.260892)"><g><path d="M 2.4375 -7.8125 L 2.4375 -1.71875 C 2.4375 -1.425781 2.488281 -1.1875 2.59375 -1 C 2.695312 -0.820312 2.882812 -0.734375 3.15625 -0.734375 C 3.300781 -0.734375 3.453125 -0.765625 3.609375 -0.828125 C 3.765625 -0.898438 3.894531 -0.976562 4 -1.0625 L 4.140625 -0.234375 C 4.023438 -0.148438 3.84375 -0.0664062 3.59375 0.015625 C 3.34375 0.109375 3.082031 0.15625 2.8125 0.15625 C 1.882812 0.15625 1.421875 -0.40625 1.421875 -1.53125 L 1.421875 -7.8125 Z M 1.203125 -10.03125 C 1.203125 -10.289062 1.269531 -10.46875 1.40625 -10.5625 C 1.539062 -10.664062 1.71875 -10.71875 1.9375 -10.71875 C 2.144531 -10.71875 2.3125 -10.664062 2.4375 -10.5625 C 2.570312 -10.46875 2.640625 -10.289062 2.640625 -10.03125 C 2.640625 -9.789062 2.570312 -9.613281 2.4375 -9.5 C 2.3125 -9.394531 2.144531 -9.34375 1.9375 -9.34375 C 1.71875 -9.34375 1.539062 -9.394531 1.40625 -9.5 C 1.269531 -9.613281 1.203125 -9.789062 1.203125 -10.03125 Z M 1.203125 -10.03125 "/></g></g></g><g fill="#ffffff" fill-opacity="1"><g transform="translate(253.134811, 14.260892)"><g><path d="M 7.8125 -1.703125 L 8.234375 -0.875 C 7.828125 -0.550781 7.34375 -0.289062 6.78125 -0.09375 C 6.226562 0.101562 5.640625 0.203125 5.015625 0.203125 C 4.035156 0.203125 3.238281 0.0234375 2.625 -0.328125 C 2.007812 -0.679688 1.554688 -1.164062 1.265625 -1.78125 C 0.984375 -2.40625 0.84375 -3.109375 0.84375 -3.890625 C 0.84375 -4.679688 1.007812 -5.390625 1.34375 -6.015625 C 1.675781 -6.640625 2.144531 -7.128906 2.75 -7.484375 C 3.363281 -7.835938 4.085938 -8.015625 4.921875 -8.015625 C 5.992188 -8.015625 6.816406 -7.742188 7.390625 -7.203125 C 7.960938 -6.660156 8.269531 -5.945312 8.3125 -5.0625 L 7.375 -4.859375 C 7.332031 -5.535156 7.113281 -6.078125 6.71875 -6.484375 C 6.320312 -6.898438 5.722656 -7.109375 4.921875 -7.109375 C 4.296875 -7.109375 3.753906 -6.96875 3.296875 -6.6875 C 2.835938 -6.414062 2.484375 -6.039062 2.234375 -5.5625 C 1.992188 -5.082031 1.875 -4.53125 1.875 -3.90625 C 1.875 -3.3125 1.984375 -2.769531 2.203125 -2.28125 C 2.429688 -1.789062 2.78125 -1.40625 3.25 -1.125 C 3.726562 -0.84375 4.351562 -0.703125 5.125 -0.703125 C 5.601562 -0.703125 6.078125 -0.796875 6.546875 -0.984375 C 7.023438 -1.179688 7.445312 -1.421875 7.8125 -1.703125 Z M 7.8125 -1.703125 "/></g></g></g><g fill="#ffffff" fill-opacity="1"><g transform="translate(262.221062, 14.260892)"><g><path d="M 2.4375 -7.8125 L 2.4375 -1.71875 C 2.4375 -1.425781 2.488281 -1.1875 2.59375 -1 C 2.695312 -0.820312 2.882812 -0.734375 3.15625 -0.734375 C 3.300781 -0.734375 3.453125 -0.765625 3.609375 -0.828125 C 3.765625 -0.898438 3.894531 -0.976562 4 -1.0625 L 4.140625 -0.234375 C 4.023438 -0.148438 3.84375 -0.0664062 3.59375 0.015625 C 3.34375 0.109375 3.082031 0.15625 2.8125 0.15625 C 1.882812 0.15625 1.421875 -0.40625 1.421875 -1.53125 L 1.421875 -7.8125 Z M 1.203125 -10.03125 C 1.203125 -10.289062 1.269531 -10.46875 1.40625 -10.5625 C 1.539062 -10.664062 1.71875 -10.71875 1.9375 -10.71875 C 2.144531 -10.71875 2.3125 -10.664062 2.4375 -10.5625 C 2.570312 -10.46875 2.640625 -10.289062 2.640625 -10.03125 C 2.640625 -9.789062 2.570312 -9.613281 2.4375 -9.5 C 2.3125 -9.394531 2.144531 -9.34375 1.9375 -9.34375 C 1.71875 -9.34375 1.539062 -9.394531 1.40625 -9.5 C 1.269531 -9.613281 1.203125 -9.789062 1.203125 -10.03125 Z M 1.203125 -10.03125 "/></g></g></g><g fill="#ffffff" fill-opacity="1"><g transform="translate(266.68946, 14.260892)"><g><path d="M 2.984375 2.8125 L 1.96875 2.8125 L 1.96875 -6.09375 C 1.96875 -6.414062 1.914062 -6.660156 1.8125 -6.828125 C 1.707031 -6.992188 1.519531 -7.078125 1.25 -7.078125 C 1.09375 -7.078125 0.9375 -7.046875 0.78125 -6.984375 C 0.632812 -6.929688 0.5 -6.859375 0.375 -6.765625 L 0.25 -7.59375 C 0.363281 -7.664062 0.546875 -7.75 0.796875 -7.84375 C 1.046875 -7.9375 1.304688 -7.984375 1.578125 -7.984375 C 2.367188 -7.984375 2.820312 -7.597656 2.9375 -6.828125 C 3.226562 -7.140625 3.601562 -7.40625 4.0625 -7.625 C 4.519531 -7.84375 5.039062 -7.953125 5.625 -7.953125 C 6.394531 -7.953125 7.066406 -7.773438 7.640625 -7.421875 C 8.210938 -7.078125 8.65625 -6.597656 8.96875 -5.984375 C 9.289062 -5.378906 9.453125 -4.679688 9.453125 -3.890625 C 9.453125 -3.109375 9.289062 -2.410156 8.96875 -1.796875 C 8.65625 -1.191406 8.210938 -0.710938 7.640625 -0.359375 C 7.066406 -0.015625 6.394531 0.15625 5.625 0.15625 C 5.070312 0.15625 4.566406 0.0546875 4.109375 -0.140625 C 3.648438 -0.347656 3.273438 -0.59375 2.984375 -0.875 Z M 5.390625 -7.03125 C 4.867188 -7.03125 4.394531 -6.914062 3.96875 -6.6875 C 3.550781 -6.46875 3.222656 -6.222656 2.984375 -5.953125 L 2.984375 -1.796875 C 3.234375 -1.535156 3.566406 -1.296875 3.984375 -1.078125 C 4.410156 -0.867188 4.878906 -0.765625 5.390625 -0.765625 C 6.003906 -0.765625 6.535156 -0.894531 6.984375 -1.15625 C 7.441406 -1.414062 7.796875 -1.78125 8.046875 -2.25 C 8.296875 -2.726562 8.421875 -3.273438 8.421875 -3.890625 C 8.421875 -4.503906 8.296875 -5.046875 8.046875 -5.515625 C 7.796875 -5.992188 7.441406 -6.363281 6.984375 -6.625 C 6.535156 -6.894531 6.003906 -7.03125 5.390625 -7.03125 Z M 5.390625 -7.03125 "/></g></g></g><g fill="#ffffff" fill-opacity="1"><g transform="translate(276.986191, 14.260892)"><g><path d="M 8.3125 -7.8125 L 8.3125 -1.71875 C 8.3125 -1.414062 8.363281 -1.175781 8.46875 -1 C 8.582031 -0.820312 8.769531 -0.734375 9.03125 -0.734375 C 9.1875 -0.734375 9.332031 -0.757812 9.46875 -0.8125 C 9.601562 -0.875 9.75 -0.957031 9.90625 -1.0625 L 10.015625 -0.234375 C 9.859375 -0.140625 9.660156 -0.0507812 9.421875 0.03125 C 9.179688 0.113281 8.941406 0.15625 8.703125 0.15625 C 8.304688 0.15625 8 0.0507812 7.78125 -0.15625 C 7.5625 -0.363281 7.421875 -0.648438 7.359375 -1.015625 C 7.078125 -0.703125 6.703125 -0.425781 6.234375 -0.1875 C 5.765625 0.0390625 5.238281 0.15625 4.65625 0.15625 C 3.894531 0.15625 3.226562 -0.015625 2.65625 -0.359375 C 2.082031 -0.703125 1.632812 -1.175781 1.3125 -1.78125 C 1 -2.394531 0.84375 -3.09375 0.84375 -3.875 C 0.84375 -4.664062 1 -5.367188 1.3125 -5.984375 C 1.632812 -6.597656 2.082031 -7.078125 2.65625 -7.421875 C 3.226562 -7.773438 3.894531 -7.953125 4.65625 -7.953125 C 5.21875 -7.953125 5.726562 -7.84375 6.1875 -7.625 C 6.644531 -7.414062 7.015625 -7.171875 7.296875 -6.890625 L 7.296875 -7.8125 Z M 7.296875 -1.8125 L 7.296875 -5.96875 C 7.066406 -6.238281 6.738281 -6.484375 6.3125 -6.703125 C 5.882812 -6.921875 5.414062 -7.03125 4.90625 -7.03125 C 4.289062 -7.03125 3.753906 -6.894531 3.296875 -6.625 C 2.847656 -6.363281 2.5 -5.992188 2.25 -5.515625 C 2 -5.046875 1.875 -4.5 1.875 -3.875 C 1.875 -3.257812 2 -2.71875 2.25 -2.25 C 2.5 -1.78125 2.847656 -1.414062 3.296875 -1.15625 C 3.753906 -0.894531 4.289062 -0.765625 4.90625 -0.765625 C 5.40625 -0.765625 5.867188 -0.875 6.296875 -1.09375 C 6.722656 -1.3125 7.054688 -1.550781 7.296875 -1.8125 Z M 7.296875 -1.8125 "/></g></g></g><g fill="#ffffff" fill-opacity="1"><g transform="translate(287.282953, 14.260892)"><g><path d="M 1.375 -10.609375 L 2.390625 -10.609375 L 2.390625 -1.828125 C 2.390625 -1.441406 2.472656 -1.160156 2.640625 -0.984375 C 2.804688 -0.816406 3.03125 -0.734375 3.3125 -0.734375 C 3.507812 -0.734375 3.679688 -0.757812 3.828125 -0.8125 C 3.984375 -0.875 4.132812 -0.957031 4.28125 -1.0625 L 4.421875 -0.234375 C 4.265625 -0.140625 4.054688 -0.0507812 3.796875 0.03125 C 3.546875 0.113281 3.273438 0.15625 2.984375 0.15625 C 2.503906 0.15625 2.113281 0.0195312 1.8125 -0.25 C 1.519531 -0.53125 1.375 -0.984375 1.375 -1.609375 Z M 1.375 -10.609375 "/></g></g></g></g></g><path stroke-linecap="butt" transform="matrix(0.75, 0, 0, 0.75, 63.801336, 210.543766)" fill="none" stroke-linejoin="miter" d="M -0.000740081 1.498937 L 377.999285 1.498937 " stroke="#ffffff" stroke-width="3" stroke-opacity="1" stroke-miterlimit="4"/><g clip-path="url(#29f4cc9970)"><path fill="#6c7f61" d="M 273.367188 138.78125 L 287.960938 138.78125 C 290.257812 142.0625 290.257812 142.0625 291.113281 143.40625 L 291.683594 144.300781 L 292.265625 145.21875 L 293.496094 147.152344 L 294.101562 148.101562 C 294.894531 149.34375 295.695312 150.585938 296.5 151.824219 L 296.878906 152.410156 L 297.234375 152.957031 L 297.5625 153.46875 C 297.882812 153.957031 298.21875 154.433594 298.554688 154.914062 C 298.71875 155.175781 298.882812 155.4375 299.050781 155.710938 L 299.050781 156.585938 L 299.636719 156.585938 L 299.636719 157.460938 L 300.21875 157.460938 C 301.132812 159 301.132812 159 301.386719 159.503906 L 301.386719 160.089844 L 301.972656 160.089844 C 302.394531 160.695312 302.796875 161.3125 303.175781 161.949219 L 303.503906 162.484375 C 303.785156 162.941406 304.046875 163.410156 304.304688 163.882812 L 304.304688 164.464844 L 305.183594 164.175781 C 305.621094 163.515625 306.035156 162.839844 306.421875 162.148438 C 307.3125 160.582031 308.28125 159.105469 309.324219 157.632812 C 310.1875 156.398438 310.984375 155.125 311.785156 153.847656 C 313.320312 151.421875 314.871094 149.007812 316.441406 146.601562 C 317.265625 145.339844 318.078125 144.070312 318.882812 142.792969 C 320.734375 139.867188 320.734375 139.867188 321.820312 138.78125 C 322.265625 138.753906 322.714844 138.746094 323.164062 138.746094 L 324.03125 138.746094 L 324.976562 138.753906 L 325.9375 138.753906 C 326.953125 138.753906 327.96875 138.757812 328.988281 138.761719 C 329.675781 138.765625 330.363281 138.765625 331.050781 138.765625 C 332.742188 138.769531 334.429688 138.773438 336.121094 138.78125 C 336.128906 146.683594 336.132812 154.585938 336.136719 162.492188 C 336.136719 166.160156 336.140625 169.832031 336.140625 173.5 C 336.144531 176.699219 336.148438 179.898438 336.148438 183.097656 C 336.148438 184.792969 336.148438 186.484375 336.152344 188.179688 C 336.152344 189.773438 336.152344 191.367188 336.152344 192.964844 C 336.152344 193.546875 336.152344 194.132812 336.15625 194.714844 C 336.15625 195.515625 336.15625 196.316406 336.15625 197.117188 L 336.160156 197.8125 C 336.152344 199.457031 336.015625 201.070312 335.828125 202.703125 C 334.269531 203.023438 332.761719 203.042969 331.179688 203.042969 L 330.347656 203.046875 C 329.769531 203.046875 329.191406 203.050781 328.613281 203.050781 C 327.726562 203.050781 326.839844 203.054688 325.953125 203.0625 C 325.390625 203.0625 324.828125 203.0625 324.269531 203.0625 L 323.460938 203.070312 L 322.71875 203.066406 L 322.0625 203.066406 L 321.527344 202.996094 L 320.941406 202.410156 C 320.871094 201.824219 320.871094 201.824219 320.871094 201.089844 L 320.867188 200.246094 L 320.871094 199.316406 L 320.871094 198.339844 C 320.871094 197.265625 320.871094 196.195312 320.875 195.121094 L 320.875 192.882812 C 320.875 191.3125 320.878906 189.742188 320.882812 188.175781 C 320.886719 186.371094 320.890625 184.570312 320.886719 182.765625 C 320.886719 181.023438 320.890625 179.28125 320.890625 177.539062 L 320.894531 175.332031 C 320.894531 171.40625 320.933594 167.503906 321.234375 163.589844 L 320.359375 163.882812 C 320.007812 164.320312 320.007812 164.320312 319.71875 164.867188 L 319.378906 165.464844 L 319.027344 166.089844 C 318.617188 166.824219 318.183594 167.550781 317.730469 168.261719 L 317.148438 168.261719 L 317.085938 168.855469 C 316.78125 170.007812 316.179688 170.914062 315.542969 171.910156 C 313.890625 174.546875 312.316406 177.230469 310.753906 179.921875 C 307.964844 184.730469 307.964844 184.730469 306.933594 186.066406 C 305.898438 186.582031 304.9375 186.671875 303.785156 186.65625 L 302.847656 186.359375 C 301.765625 185.164062 301.058594 183.828125 300.3125 182.40625 C 299.636719 181.148438 298.882812 179.933594 298.140625 178.714844 C 297.839844 178.214844 297.542969 177.714844 297.246094 177.214844 C 296.589844 176.121094 295.929688 175.035156 295.257812 173.953125 C 294.101562 172.082031 292.96875 170.195312 291.84375 168.304688 C 291.425781 167.609375 291.007812 166.914062 290.589844 166.21875 L 290.179688 165.53125 L 289.789062 164.890625 L 289.445312 164.324219 C 289.144531 163.835938 289.144531 163.835938 288.546875 163.589844 L 288.546875 164.199219 C 288.550781 169.09375 288.558594 173.984375 288.558594 178.875 C 288.5625 181.238281 288.5625 183.605469 288.566406 185.972656 C 288.570312 188.03125 288.570312 190.09375 288.574219 192.152344 C 288.574219 193.246094 288.574219 194.335938 288.574219 195.429688 C 288.578125 196.644531 288.578125 197.863281 288.578125 199.078125 L 288.582031 200.183594 L 288.578125 201.183594 L 288.582031 202.054688 L 288.546875 202.703125 L 288.253906 202.996094 L 273.367188 202.996094 Z M 177.464844 138.144531 C 178.121094 138.140625 178.777344 138.136719 179.433594 138.132812 C 184.957031 138.109375 189.875 139.203125 194.695312 141.933594 C 196.242188 142.859375 197.601562 144 198.941406 145.203125 C 198.777344 146.738281 198.257812 147.871094 197.554688 149.214844 L 197.234375 149.839844 C 197.023438 150.246094 196.8125 150.65625 196.601562 151.066406 C 196.230469 151.785156 195.867188 152.503906 195.511719 153.230469 L 195.171875 153.902344 C 194.953125 154.339844 194.742188 154.785156 194.535156 155.226562 C 194.273438 155.789062 193.984375 156.335938 193.6875 156.878906 L 192.8125 157.167969 C 191.996094 156.757812 191.996094 156.757812 191.003906 156.148438 C 189.472656 155.226562 187.886719 154.414062 186.242188 153.703125 L 185.660156 153.449219 C 183.613281 152.535156 183.613281 152.535156 181.429688 152.207031 L 181.429688 151.625 L 180.84375 151.914062 C 180.324219 151.949219 179.800781 151.980469 179.28125 152 C 176.476562 152.113281 174.1875 152.5 171.722656 153.921875 C 169.886719 155.089844 168.601562 156.183594 167.417969 158.046875 L 166.835938 158.335938 C 166.359375 159.273438 166.027344 160.273438 165.667969 161.253906 L 165.277344 162.257812 C 164.28125 164.976562 163.960938 167.417969 163.914062 170.304688 L 163.871094 171.136719 C 163.792969 173.234375 164.175781 175.226562 164.570312 177.277344 C 164.796875 178.449219 164.945312 179.625 165.082031 180.8125 L 165.667969 180.8125 C 165.769531 181.09375 165.871094 181.378906 165.976562 181.667969 C 166.898438 183.800781 168.496094 185.570312 170.265625 187.046875 C 172 188.3125 173.726562 189.328125 175.882812 189.570312 C 179.554688 189.824219 182.589844 189.429688 185.988281 187.9375 C 186.535156 187.640625 186.535156 187.640625 186.972656 187.234375 C 187.1875 186.371094 187.253906 185.8125 187.238281 184.949219 L 187.246094 184.285156 C 187.257812 183.589844 187.253906 182.894531 187.246094 182.199219 C 187.25 181.726562 187.253906 181.253906 187.261719 180.78125 C 187.273438 179.621094 187.273438 178.464844 187.265625 177.308594 L 186.117188 177.289062 C 184.71875 177.257812 183.320312 177.230469 181.917969 177.199219 C 181.3125 177.1875 180.707031 177.175781 180.097656 177.164062 C 179.230469 177.148438 178.359375 177.128906 177.488281 177.109375 L 176.660156 177.09375 L 175.898438 177.078125 L 175.226562 177.0625 L 174.714844 177.019531 L 174.421875 176.726562 C 174.394531 175.84375 174.382812 174.96875 174.382812 174.089844 L 174.382812 173.289062 C 174.382812 172.726562 174.382812 172.167969 174.386719 171.605469 C 174.386719 170.746094 174.386719 169.886719 174.382812 169.023438 C 174.382812 168.480469 174.382812 167.9375 174.382812 167.394531 L 174.382812 166.609375 C 174.382812 165.992188 174.402344 165.375 174.421875 164.757812 L 174.714844 164.464844 C 175.527344 164.4375 176.339844 164.425781 177.15625 164.429688 L 177.929688 164.425781 C 178.78125 164.425781 179.628906 164.425781 180.480469 164.425781 L 182.242188 164.425781 C 183.476562 164.425781 184.710938 164.425781 185.945312 164.429688 C 187.527344 164.429688 189.113281 164.429688 190.699219 164.425781 C 191.914062 164.425781 193.128906 164.425781 194.34375 164.425781 C 194.925781 164.425781 195.511719 164.425781 196.097656 164.425781 C 196.910156 164.425781 197.726562 164.425781 198.542969 164.429688 L 199.28125 164.425781 C 199.851562 164.429688 200.417969 164.445312 200.984375 164.464844 L 201.273438 164.757812 C 201.308594 165.167969 201.324219 165.578125 201.328125 165.988281 L 201.34375 166.792969 L 201.355469 167.679688 L 201.367188 168.609375 C 201.410156 171.445312 201.433594 174.285156 201.449219 177.121094 C 201.460938 179.027344 201.480469 180.933594 201.511719 182.84375 C 201.542969 184.683594 201.558594 186.527344 201.5625 188.367188 C 201.566406 189.070312 201.578125 189.773438 201.59375 190.476562 C 201.613281 191.457031 201.613281 192.441406 201.609375 193.425781 L 201.640625 194.304688 C 201.628906 195.152344 201.578125 195.777344 201.273438 196.574219 C 200.398438 197.441406 199.4375 198.03125 198.355469 198.617188 L 197.773438 198.949219 C 195.039062 200.453125 192.296875 201.488281 189.257812 202.195312 C 188.433594 202.390625 188.433594 202.390625 187.683594 202.71875 C 186.96875 202.996094 186.363281 203.117188 185.605469 203.195312 L 184.925781 203.273438 C 184.347656 203.289062 184.347656 203.289062 183.761719 202.996094 L 183.761719 203.578125 C 177.710938 204.355469 171.644531 204.09375 165.957031 201.785156 C 163.296875 200.648438 160.742188 199.199219 158.660156 197.15625 L 158.660156 196.574219 L 158.03125 196.398438 C 156.945312 195.863281 156.347656 195.089844 155.632812 194.148438 L 155.210938 193.597656 C 153.910156 191.867188 152.886719 190.058594 151.949219 188.109375 L 151.605469 187.410156 C 151.308594 186.773438 151.039062 186.136719 150.78125 185.480469 L 150.492188 184.777344 C 148.039062 178.191406 147.757812 170.621094 148.792969 163.730469 C 149.855469 157.566406 152.089844 152.21875 156.070312 147.367188 C 159.203125 143.734375 163.011719 141.089844 167.523438 139.46875 C 170.863281 138.355469 173.972656 138.140625 177.464844 138.144531 M 215.578125 138.78125 L 259.941406 138.78125 C 260.234375 151.039062 260.234375 151.039062 259.941406 152.207031 L 229.878906 152.207031 L 229.878906 163.300781 C 232.496094 163.324219 232.496094 163.324219 235.167969 163.351562 C 236.269531 163.363281 237.371094 163.375 238.476562 163.386719 C 240.226562 163.40625 241.980469 163.425781 243.730469 163.445312 C 245.144531 163.457031 246.554688 163.472656 247.96875 163.488281 C 248.507812 163.496094 249.046875 163.5 249.585938 163.507812 C 250.339844 163.511719 251.09375 163.523438 251.847656 163.53125 L 252.53125 163.535156 C 253.054688 163.542969 253.578125 163.566406 254.105469 163.589844 L 254.394531 163.882812 C 254.421875 164.277344 254.429688 164.671875 254.429688 165.066406 L 254.429688 165.828125 L 254.425781 166.65625 L 254.421875 167.5 C 254.421875 168.390625 254.417969 169.285156 254.414062 170.175781 C 254.414062 170.78125 254.410156 171.382812 254.410156 171.988281 C 254.40625 173.46875 254.402344 174.953125 254.394531 176.433594 C 253.492188 176.886719 252.539062 176.761719 251.550781 176.757812 L 250.839844 176.757812 C 250.066406 176.757812 249.292969 176.757812 248.519531 176.753906 L 246.914062 176.753906 C 245.5 176.75 244.089844 176.75 242.675781 176.746094 C 240.984375 176.742188 239.292969 176.742188 237.597656 176.738281 C 235.023438 176.734375 232.453125 176.730469 229.878906 176.726562 L 229.585938 189.570312 L 259.941406 189.859375 C 260.164062 190.746094 260.269531 191.320312 260.269531 192.195312 L 260.273438 192.882812 L 260.273438 194.367188 C 260.273438 194.894531 260.273438 195.421875 260.269531 195.949219 C 260.269531 196.753906 260.269531 197.5625 260.273438 198.371094 C 260.273438 198.882812 260.273438 199.394531 260.273438 199.90625 L 260.273438 200.640625 C 260.265625 202.34375 260.265625 202.34375 259.941406 202.996094 C 254.160156 203.003906 248.382812 203.007812 242.601562 203.011719 C 239.921875 203.011719 237.238281 203.015625 234.554688 203.015625 C 232.214844 203.019531 229.878906 203.023438 227.539062 203.023438 C 226.300781 203.023438 225.0625 203.023438 223.824219 203.027344 C 222.660156 203.027344 221.496094 203.027344 220.332031 203.027344 C 219.902344 203.027344 219.472656 203.027344 219.042969 203.03125 C 218.460938 203.03125 217.878906 203.03125 217.296875 203.03125 L 216.304688 203.03125 L 215.578125 202.996094 L 215.285156 202.703125 C 215.253906 201.933594 215.246094 201.171875 215.246094 200.402344 L 215.246094 199.660156 C 215.246094 198.835938 215.246094 198.011719 215.246094 197.1875 L 215.246094 195.421875 C 215.246094 193.816406 215.246094 192.214844 215.246094 190.609375 C 215.246094 188.9375 215.246094 187.261719 215.246094 185.585938 C 215.246094 182.773438 215.246094 179.960938 215.246094 177.148438 C 215.25 173.890625 215.25 170.636719 215.246094 167.378906 C 215.246094 164.589844 215.246094 161.800781 215.246094 159.007812 C 215.246094 157.339844 215.246094 155.671875 215.246094 154 C 215.246094 152.433594 215.246094 150.863281 215.246094 149.292969 C 215.246094 148.71875 215.246094 148.140625 215.246094 147.5625 C 215.246094 146.777344 215.246094 145.992188 215.246094 145.207031 L 215.246094 144.507812 C 215.25 142.933594 215.25 142.933594 215.578125 142.285156 C 215.542969 141.796875 215.492188 141.308594 215.429688 140.824219 C 215.367188 140.339844 215.320312 139.851562 215.285156 139.363281 Z M 87.007812 138.105469 L 87.628906 138.105469 C 93.828125 138.132812 100.3125 138.925781 105.832031 141.992188 L 106.417969 142.574219 C 106.367188 143.136719 106.367188 143.136719 106.199219 143.796875 L 106.019531 144.507812 C 105.957031 144.738281 105.894531 144.964844 105.832031 145.203125 L 105.539062 146.296875 C 105.25 147.246094 105.25 147.246094 104.976562 147.921875 C 104.054688 150.246094 103.5 152.703125 102.914062 155.125 C 102.441406 155.320312 102.441406 155.320312 101.746094 155.417969 C 100.921875 155.113281 100.921875 155.113281 99.957031 154.652344 C 98.304688 153.890625 96.644531 153.324219 94.886719 152.847656 L 94.222656 152.664062 C 91.953125 152.058594 89.824219 151.855469 87.480469 151.84375 L 86.636719 151.824219 C 84.835938 151.816406 83.542969 152.0625 81.898438 152.792969 L 80.949219 153.121094 C 80.113281 153.691406 79.882812 154.003906 79.4375 154.890625 C 79.082031 155.800781 78.902344 156.539062 78.980469 157.515625 C 79.3125 158.777344 79.558594 159.414062 80.441406 160.378906 C 82.519531 161.800781 84.777344 162.53125 87.152344 163.300781 C 99.28125 167.285156 99.28125 167.285156 103.140625 171.113281 C 103.550781 171.582031 103.550781 171.582031 104.082031 172.347656 L 104.082031 172.929688 L 104.664062 172.929688 C 106.882812 176.996094 107.476562 180.390625 107.382812 185.035156 C 107.238281 188.539062 106.234375 191.835938 104.375 194.824219 C 102.335938 197.796875 99.773438 199.960938 96.539062 201.539062 C 91.375 203.964844 85.761719 204.230469 80.148438 203.757812 C 79.679688 203.714844 79.210938 203.664062 78.742188 203.617188 L 78.09375 203.546875 C 76.863281 203.398438 75.765625 203.117188 74.601562 202.703125 C 74.097656 202.589844 73.59375 202.480469 73.089844 202.375 C 71.367188 201.957031 69.773438 201.328125 68.144531 200.640625 L 67.398438 200.328125 C 65.632812 199.570312 65.632812 199.570312 64.96875 198.910156 C 64.925781 197.152344 65.441406 195.355469 65.867188 193.664062 L 66.039062 192.949219 C 66.222656 192.203125 66.410156 191.460938 66.59375 190.71875 C 66.71875 190.210938 66.84375 189.703125 66.96875 189.191406 C 67.273438 187.957031 67.582031 186.71875 67.890625 185.480469 C 69.121094 185.707031 70.152344 186.085938 71.300781 186.59375 C 72.769531 187.238281 74.246094 187.859375 75.746094 188.441406 C 76.355469 188.691406 76.355469 188.691406 76.925781 188.996094 C 78.984375 189.964844 81.484375 189.921875 83.722656 189.953125 L 84.382812 189.96875 C 86.34375 189.964844 87.828125 189.40625 89.5625 188.472656 C 90.3125 187.859375 90.882812 187.304688 91.324219 186.433594 C 91.792969 184.945312 91.835938 183.503906 91.53125 181.980469 C 90.929688 181 90.183594 180.503906 89.195312 179.9375 L 88.460938 179.507812 C 85.96875 178.230469 83.277344 177.5 80.601562 176.699219 C 74.492188 174.867188 74.492188 174.867188 73.433594 173.808594 L 72.542969 173.460938 C 70.417969 172.578125 68.652344 170.957031 67.195312 169.199219 C 65.261719 166.5625 64.3125 163.855469 63.949219 160.625 C 63.578125 156.59375 64 152.640625 65.699219 148.929688 C 67.382812 145.832031 69.628906 143.285156 72.578125 141.351562 C 77.050781 138.714844 81.875 138.078125 87.007812 138.105469 " fill-opacity="1" fill-rule="nonzero"/></g><path fill="#418e1b" d="M 49.5 143.449219 C 50.546875 143.992188 51.1875 144.539062 51.945312 145.4375 C 52.421875 146.371094 52.421875 146.371094 52.546875 147.390625 C 52.40625 148.515625 52.152344 149.210938 51.542969 150.164062 C 51.019531 150.644531 51.019531 150.644531 50.375 151.039062 C 49.625 151.164062 48.902344 151.1875 48.140625 151.214844 L 47.457031 151.332031 C 46.96875 151.761719 46.96875 151.761719 46.582031 152.207031 L 46 152.207031 L 45.707031 153.667969 L 45.125 153.667969 L 45.125 154.542969 L 44.539062 154.542969 L 44.300781 155.398438 L 43.957031 156.292969 L 43.082031 156.585938 L 42.789062 158.046875 L 42.203125 158.046875 L 42.128906 158.507812 C 41.828125 159.484375 41.300781 160.304688 40.761719 161.164062 L 40.445312 161.691406 C 40.167969 162.136719 39.875 162.574219 39.578125 163.007812 L 38.992188 163.300781 C 38.800781 164.183594 38.800781 164.183594 38.703125 165.050781 L 39.230469 165.269531 C 39.953125 165.683594 40.289062 166.117188 40.746094 166.800781 C 43.199219 166.070312 45.449219 164.988281 47.75 163.882812 L 47.699219 163.15625 C 47.632812 161.480469 47.628906 160.046875 48.332031 158.5 C 49.140625 157.09375 50.160156 156.234375 51.542969 155.417969 C 52.5 154.863281 53.320312 154.785156 54.410156 154.742188 C 55.871094 154.773438 56.929688 155.105469 58.257812 155.710938 L 59.132812 156.292969 L 59.132812 156.878906 L 60.007812 157.167969 L 60.007812 158.046875 L 60.882812 158.335938 C 61.339844 159.410156 61.25 160.652344 61.265625 161.804688 L 61.292969 162.417969 C 61.308594 163.53125 61.175781 164.171875 60.636719 165.15625 C 60 165.9375 59.382812 166.523438 58.550781 167.09375 L 57.964844 167.09375 L 57.964844 167.675781 C 56.597656 168.261719 55.363281 168.644531 53.859375 168.554688 C 52.574219 168.371094 51.648438 167.921875 50.578125 167.195312 C 50.085938 166.800781 50.085938 166.800781 49.691406 166.296875 L 49.210938 165.925781 C 47.625 165.960938 46.296875 166.710938 44.90625 167.402344 C 44.460938 167.621094 44.019531 167.835938 43.578125 168.050781 L 42.992188 168.34375 C 42.496094 168.554688 42.496094 168.554688 41.914062 168.554688 L 42.058594 169.683594 C 42.226562 171.160156 42.230469 172.617188 42.203125 174.097656 C 42.953125 174.296875 43.699219 174.488281 44.449219 174.683594 L 45.085938 174.851562 C 46.195312 175.132812 47.179688 175.339844 48.332031 175.265625 L 48.5625 174.726562 C 48.917969 174.097656 48.917969 174.097656 49.394531 173.71875 C 50.28125 173.253906 50.972656 172.933594 51.992188 172.921875 C 52.628906 172.996094 53.25 173.089844 53.878906 173.222656 L 53.878906 173.808594 L 54.410156 173.898438 C 55.046875 174.097656 55.046875 174.097656 55.558594 174.519531 L 55.921875 174.972656 L 55.921875 175.558594 L 56.507812 175.558594 C 56.902344 176.742188 56.957031 177.820312 56.796875 179.0625 C 56.488281 179.789062 56.160156 180.203125 55.628906 180.8125 L 55.046875 180.8125 L 55.046875 181.394531 L 54.464844 181.394531 L 54.464844 181.980469 C 53.113281 182.429688 51.785156 182.421875 50.375 182.273438 C 49.519531 181.777344 49.519531 181.777344 48.917969 181.105469 L 48.277344 180.445312 C 47.601562 179.417969 47.445312 178.511719 47.167969 177.308594 C 46.414062 177.105469 45.660156 176.90625 44.90625 176.707031 L 44.257812 176.53125 C 43.082031 176.214844 43.082031 176.214844 41.875 176.234375 L 41.328125 176.433594 C 40.765625 177.074219 40.765625 177.074219 40.453125 177.894531 C 40.429688 178.652344 40.429688 178.652344 40.746094 179.351562 C 41.121094 179.753906 41.511719 180.144531 41.914062 180.519531 L 41.914062 181.105469 L 42.386719 181.285156 C 43.347656 181.84375 44.128906 182.578125 44.832031 183.4375 L 44.832031 184.023438 L 45.398438 184.261719 L 46 184.605469 L 46.289062 185.480469 L 47.167969 185.773438 L 47.167969 186.359375 L 47.75 186.359375 L 47.75 186.941406 L 48.625 187.234375 L 48.625 187.816406 L 49.210938 187.816406 L 49.210938 188.402344 L 50.085938 188.691406 L 50.085938 189.277344 C 51.441406 189.355469 51.441406 189.355469 52.710938 188.984375 C 54.171875 188.859375 55.667969 188.789062 57.054688 189.332031 C 58.339844 190.078125 59.136719 190.886719 59.953125 192.121094 C 60.410156 193.367188 60.496094 194.386719 60.300781 195.699219 C 59.898438 197.042969 59.414062 198.054688 58.402344 199.035156 C 56.804688 200.035156 56.804688 200.035156 55.773438 200.175781 C 54.421875 200.195312 53.261719 200.167969 52.019531 199.601562 C 50.925781 198.960938 50.199219 198.226562 49.5 197.15625 C 49.007812 195.96875 48.859375 194.894531 49.007812 193.617188 C 49.210938 192.488281 49.210938 192.488281 49.503906 191.691406 L 49.5 190.734375 C 48.894531 189.824219 48.121094 189.097656 47.335938 188.339844 L 46.65625 187.664062 C 46.179688 187.191406 45.703125 186.722656 45.222656 186.253906 C 44.488281 185.539062 43.757812 184.816406 43.035156 184.089844 C 42.570312 183.632812 42.109375 183.179688 41.644531 182.722656 L 40.984375 182.066406 L 40.359375 181.464844 L 39.816406 180.929688 C 39.304688 180.492188 39.304688 180.492188 38.683594 180.292969 L 38.117188 180.226562 C 37.34375 180.574219 37.34375 180.574219 36.585938 181.085938 L 35.796875 181.585938 L 35.199219 181.980469 C 35.289062 182.734375 35.382812 183.488281 35.472656 184.242188 L 35.550781 184.886719 C 35.71875 186.371094 35.71875 186.371094 36.074219 187.816406 C 36.632812 188.117188 36.632812 188.117188 37.316406 188.273438 C 38.375 188.582031 39.265625 188.902344 40.160156 189.570312 L 40.160156 190.152344 L 40.746094 190.152344 C 41.390625 191.277344 41.808594 192.3125 41.933594 193.613281 C 41.886719 195.117188 41.308594 196.414062 40.542969 197.6875 C 39.625 198.554688 38.742188 199.105469 37.535156 199.492188 C 36.105469 199.695312 34.90625 199.574219 33.519531 199.183594 C 32.339844 198.480469 31.589844 197.707031 30.820312 196.574219 C 30.367188 195.703125 30.242188 195.050781 30.21875 194.070312 C 30.265625 192.976562 30.351562 191.996094 30.816406 190.992188 C 31.597656 189.816406 32.527344 189.105469 33.738281 188.402344 C 33.578125 186.351562 33.394531 184.3125 33.15625 182.273438 L 29.363281 182.273438 L 28.742188 183.640625 L 28.394531 184.410156 L 28.195312 185.191406 C 28.460938 186.113281 28.828125 186.722656 29.363281 187.527344 C 29.472656 188.46875 29.496094 189.230469 29.140625 190.125 C 28.726562 190.894531 28.261719 191.542969 27.648438 192.160156 C 26.800781 192.609375 26.242188 192.761719 25.277344 192.78125 C 23.992188 192.382812 23.117188 191.796875 22.191406 190.828125 C 21.789062 189.898438 21.703125 189.503906 21.753906 188.527344 C 21.917969 187.59375 22.082031 187.207031 22.648438 186.414062 C 23.425781 185.847656 23.976562 185.589844 24.855469 185.261719 C 25.546875 185.003906 25.546875 185.003906 26.152344 184.605469 C 26.726562 183.78125 27.074219 182.953125 27.320312 181.980469 L 27.320312 180.8125 L 25.566406 180.226562 C 24.046875 181.722656 22.53125 183.21875 21.015625 184.71875 C 20.3125 185.417969 19.609375 186.113281 18.902344 186.804688 C 18.089844 187.601562 17.28125 188.402344 16.476562 189.207031 L 15.707031 189.957031 L 14.996094 190.667969 L 14.371094 191.285156 C 13.847656 191.886719 13.847656 191.886719 13.660156 192.675781 L 13.601562 193.363281 C 13.789062 193.757812 13.984375 194.144531 14.183594 194.53125 C 14.242188 195.347656 14.242188 195.347656 14.222656 196.210938 L 14.207031 197.078125 L 14.183594 197.742188 L 13.601562 197.742188 L 13.566406 198.363281 C 13.25 199.398438 12.75 199.878906 11.988281 200.621094 L 11.558594 200.953125 L 10.972656 200.953125 L 10.972656 201.535156 C 9.617188 201.988281 8.304688 201.964844 6.886719 201.828125 C 5.988281 201.578125 5.289062 201.234375 4.554688 200.660156 C 3.820312 199.871094 3.246094 199.089844 2.914062 198.058594 C 2.636719 196.550781 2.632812 195.0625 3.09375 193.601562 C 3.90625 192.457031 4.882812 191.5625 6.011719 190.734375 C 7.273438 190.316406 8.488281 190.351562 9.804688 190.445312 C 10.300781 190.625 10.785156 190.820312 11.265625 191.027344 C 11.835938 190.988281 11.835938 190.988281 12.433594 190.734375 C 13.042969 190.265625 13.042969 190.265625 13.640625 189.65625 L 14.351562 188.960938 L 15.113281 188.203125 L 15.894531 187.429688 C 16.4375 186.890625 16.984375 186.347656 17.527344 185.804688 C 18.222656 185.109375 18.921875 184.417969 19.625 183.730469 C 20.296875 183.074219 20.960938 182.410156 21.625 181.746094 L 22.390625 181 L 23.089844 180.292969 C 23.292969 180.089844 23.496094 179.886719 23.707031 179.679688 L 24.109375 179.0625 C 24.0625 178.296875 24.0625 178.296875 23.816406 177.601562 L 23.652344 176.925781 L 23.523438 176.433594 C 21.71875 176.816406 19.933594 177.238281 18.160156 177.765625 L 17.460938 177.945312 C 16.765625 178.15625 16.238281 178.351562 15.644531 178.769531 C 15.179688 179.613281 14.976562 180.457031 14.769531 181.394531 C 14.21875 182.796875 13.519531 183.605469 12.363281 184.53125 C 11.710938 184.996094 11.167969 185.289062 10.390625 185.480469 C 9.003906 185.613281 7.871094 185.457031 6.59375 184.929688 C 5.519531 184.332031 4.71875 183.53125 3.96875 182.5625 C 3.414062 181.429688 3.257812 180.351562 3.292969 179.085938 C 3.460938 177.972656 3.9375 177.070312 4.554688 176.140625 C 5.355469 175.21875 6.046875 174.554688 7.179688 174.097656 C 8.464844 173.917969 9.6875 173.921875 10.972656 174.097656 C 11.980469 174.542969 12.820312 175.070312 13.601562 175.851562 L 13.894531 176.726562 C 15.605469 176.542969 17.148438 176.082031 18.78125 175.539062 C 19.273438 175.378906 19.761719 175.214844 20.253906 175.054688 L 20.90625 174.839844 C 21.480469 174.683594 21.480469 174.683594 22.355469 174.683594 L 22.355469 169.429688 L 20.679688 168.679688 L 19.734375 168.261719 C 18.90625 167.921875 18.90625 167.921875 18.210938 168.023438 C 17.585938 168.277344 17.585938 168.277344 16.8125 169.007812 C 16.109375 169.53125 15.65625 169.71875 14.785156 169.867188 C 13.867188 169.902344 13.046875 169.878906 12.140625 169.71875 C 11.285156 169.101562 11.285156 169.101562 10.683594 168.261719 L 9.878906 167.421875 C 9.222656 166.507812 9.222656 166.507812 8.929688 165.523438 C 8.929688 164.4375 9.050781 163.6875 9.46875 162.695312 C 10.0625 161.707031 10.910156 161.035156 11.851562 160.378906 C 12.804688 159.902344 13.800781 160.015625 14.851562 160.023438 C 15.644531 160.089844 15.644531 160.089844 16.574219 160.488281 L 17.101562 160.964844 L 17.101562 161.546875 L 17.6875 161.546875 L 17.6875 162.132812 L 18.269531 162.132812 C 18.566406 162.808594 18.832031 163.433594 18.929688 164.167969 C 19.027344 164.828125 19.132812 165.328125 19.4375 165.925781 C 20.492188 166.683594 21.628906 167.007812 22.886719 167.257812 C 23.597656 167.128906 23.597656 167.128906 24.21875 166.4375 C 24.734375 165.707031 24.734375 165.707031 24.710938 165.070312 C 24.25 164.171875 23.589844 163.484375 22.941406 162.714844 L 22.941406 162.132812 L 22.066406 161.839844 C 21.59375 161.316406 21.59375 161.316406 21.0625 160.617188 C 20.03125 159.296875 18.980469 157.996094 17.90625 156.714844 L 17.457031 156.164062 C 16.683594 155.210938 16.683594 155.210938 15.636719 154.617188 L 15.058594 154.542969 L 14.402344 154.835938 C 13.5 155.164062 12.8125 155.144531 11.863281 154.992188 C 10.65625 154.675781 9.699219 154.113281 8.792969 153.261719 C 7.933594 152.304688 7.460938 151.410156 7.179688 150.164062 C 7.050781 148.757812 7.21875 147.625 7.75 146.328125 C 8.359375 145.246094 9.28125 144.652344 10.328125 144.003906 C 11.722656 143.441406 13.296875 143.597656 14.769531 143.742188 C 16.125 144.359375 16.96875 145.339844 17.921875 146.460938 C 18.269531 146.953125 18.269531 146.953125 18.5625 147.828125 C 18.691406 149.402344 18.585938 150.730469 17.980469 152.207031 L 17.394531 152.207031 C 17.523438 153.070312 17.738281 153.4375 18.289062 154.140625 L 18.855469 154.835938 L 18.855469 155.417969 L 19.4375 155.417969 C 19.914062 155.964844 19.914062 155.964844 20.3125 156.585938 L 20.3125 157.167969 L 20.898438 157.167969 C 21.339844 157.660156 21.339844 157.660156 21.808594 158.300781 L 22.285156 158.9375 L 22.648438 159.503906 L 22.648438 160.089844 L 23.523438 160.378906 L 23.523438 160.964844 L 24.109375 160.964844 C 24.875 161.785156 24.875 161.785156 25.566406 162.714844 L 25.566406 163.589844 C 26.457031 163.683594 27.160156 163.652344 28 163.332031 C 28.460938 163.121094 28.917969 162.902344 29.375 162.679688 C 29.945312 162.421875 29.945312 162.421875 30.53125 162.421875 L 30.238281 157.753906 L 28.195312 157.460938 C 27.429688 156.839844 27.429688 156.839844 26.734375 156 L 26.332031 155.542969 C 25.757812 154.835938 25.347656 154.203125 25.089844 153.324219 C 24.910156 152.203125 24.933594 151.21875 25.257812 150.128906 C 25.777344 148.933594 26.589844 148.171875 27.597656 147.363281 C 28.699219 146.605469 29.628906 146.398438 30.949219 146.277344 C 32.160156 146.386719 32.960938 146.671875 34.03125 147.246094 C 34.871094 147.957031 34.871094 147.957031 35.492188 148.703125 C 35.730469 149.378906 35.730469 149.378906 35.785156 149.871094 L 36.367188 149.871094 C 36.746094 151.011719 36.789062 152.1875 36.660156 153.375 C 36.171875 154.613281 35.53125 155.621094 34.617188 156.585938 C 33.949219 157.007812 33.265625 157.375 32.574219 157.753906 C 32.128906 158.640625 32.230469 159.398438 32.28125 160.378906 C 32.28125 161.351562 32.28125 161.351562 32.863281 162.132812 C 34.277344 162.675781 35.726562 163.007812 37.242188 163.007812 C 37.707031 162.359375 38.136719 161.691406 38.539062 161 C 38.796875 160.570312 39.054688 160.144531 39.316406 159.714844 L 39.730469 159.035156 C 40.59375 157.636719 41.519531 156.28125 42.4375 154.917969 C 42.847656 154.308594 43.257812 153.695312 43.664062 153.082031 C 43.804688 152.871094 43.945312 152.660156 44.089844 152.445312 L 44.492188 151.820312 L 44.851562 151.265625 C 45.1875 150.699219 45.1875 150.699219 45.234375 149.761719 C 45.164062 149.003906 45.164062 149.003906 44.832031 148.414062 C 44.742188 147.488281 44.714844 146.699219 45.03125 145.8125 C 45.523438 144.851562 45.929688 144.371094 46.839844 143.761719 C 47.835938 143.421875 48.457031 143.296875 49.5 143.449219 M 28.171875 148.863281 C 27.566406 149.292969 27.566406 149.292969 27.007812 149.980469 C 26.648438 150.992188 26.625 151.722656 26.734375 152.792969 C 27.078125 153.769531 27.402344 154.570312 28.046875 155.382812 C 28.523438 155.773438 28.523438 155.773438 29.363281 156 C 30.671875 156.117188 31.878906 156.152344 33.121094 155.691406 C 33.953125 154.933594 34.507812 154.128906 34.90625 153.082031 C 35.078125 152.035156 35.078125 152.035156 34.90625 151.039062 C 34.464844 150.113281 33.949219 149.359375 33.15625 148.703125 L 32.574219 148.703125 L 32.574219 148.121094 C 30.742188 147.6875 29.769531 147.863281 28.171875 148.863281 M 53.277344 156.421875 C 52.042969 157.078125 51.050781 157.90625 50.085938 158.921875 C 49.527344 159.828125 49.496094 160.421875 49.390625 161.492188 C 49.425781 162.65625 49.753906 163.527344 50.320312 164.539062 C 50.828125 165.285156 51.359375 165.742188 52.128906 166.21875 C 53.183594 166.710938 53.855469 166.800781 55.027344 166.765625 C 56.316406 166.554688 57.1875 166.085938 58.257812 165.34375 C 58.992188 164.550781 59.375 164.027344 59.71875 163.007812 C 59.820312 162.023438 59.824219 161.074219 59.71875 160.089844 C 59.136719 158.902344 58.359375 158 57.316406 157.183594 C 56.046875 156.433594 54.71875 156.214844 53.277344 156.421875 M 12.523438 161.804688 C 11.5625 162.320312 11.5625 162.320312 11.203125 162.996094 C 10.925781 163.699219 10.757812 164.296875 10.683594 165.050781 C 10.871094 166.039062 11.316406 166.789062 11.941406 167.578125 C 12.417969 168.019531 12.417969 168.019531 13.097656 168.105469 C 14.09375 168.117188 14.988281 168.105469 15.933594 167.753906 C 16.515625 167.410156 16.515625 167.410156 17.101562 166.511719 C 17.347656 165.386719 17.355469 164.421875 17.101562 163.300781 C 16.59375 162.503906 16.21875 162.320312 15.351562 161.839844 C 14.242188 161.460938 13.671875 161.53125 12.523438 161.804688 M 27.824219 165.117188 C 26.3125 166.152344 25.222656 167.5 24.398438 169.136719 C 23.953125 170.875 23.882812 172.613281 24.316406 174.355469 C 24.878906 176.015625 25.480469 177.25 26.734375 178.476562 C 27.90625 179.503906 29.007812 180.132812 30.542969 180.4375 C 32.246094 180.683594 33.703125 180.496094 35.328125 179.964844 C 36.652344 179.398438 37.714844 178.652344 38.703125 177.601562 C 39.578125 176.222656 40.359375 174.699219 40.53125 173.058594 C 40.585938 171.480469 40.527344 170.199219 39.851562 168.753906 C 39.074219 167.402344 38.214844 166.261719 36.949219 165.34375 C 35.519531 164.574219 33.945312 163.988281 32.320312 163.855469 C 30.722656 163.925781 29.226562 164.359375 27.824219 165.117188 M 33.296875 190.640625 C 32.777344 191.070312 32.777344 191.070312 32.28125 191.976562 C 31.917969 193.332031 31.972656 194.039062 32.28125 195.40625 C 32.570312 196.230469 32.570312 196.230469 33.15625 196.867188 C 33.890625 197.414062 34.359375 197.75 35.199219 198.035156 C 36.035156 198.101562 36.734375 197.992188 37.535156 197.742188 C 38.589844 197.203125 39.160156 196.746094 39.851562 195.789062 C 40.195312 194.710938 40.246094 193.964844 40.078125 192.851562 C 39.773438 191.894531 39.25 191.265625 38.578125 190.535156 C 38.09375 190.085938 38.09375 190.085938 37.242188 189.859375 C 35.699219 189.730469 34.613281 189.78125 33.296875 190.640625 M 5.539062 193 C 4.953125 193.539062 4.953125 193.539062 4.554688 194.238281 C 4.273438 195.460938 4.292969 196.515625 4.554688 197.742188 C 5.027344 198.699219 5.691406 199.25 6.542969 199.894531 C 7.546875 200.179688 8.488281 200.230469 9.515625 200.078125 C 10.351562 199.785156 10.824219 199.457031 11.558594 198.910156 C 12.222656 197.945312 12.417969 197.296875 12.542969 196.136719 C 12.417969 194.984375 12.199219 194.328125 11.558594 193.363281 C 10.828125 192.617188 10.828125 192.617188 9.804688 192.195312 C 8.167969 191.851562 6.90625 192.003906 5.539062 193 " fill-opacity="1" fill-rule="nonzero"/><path fill="#78b957" d="M 10.972656 174.097656 C 11.980469 174.542969 12.820312 175.070312 13.601562 175.851562 L 13.894531 176.726562 L 14.769531 177.019531 C 14.96875 177.621094 14.96875 177.621094 15.058594 178.183594 L 15.644531 178.183594 C 14.714844 181.882812 14.714844 181.882812 13.894531 183.148438 C 13.050781 184.015625 12.179688 184.71875 11.121094 185.300781 C 9.964844 185.589844 8.9375 185.609375 7.769531 185.355469 C 6.601562 184.992188 5.773438 184.476562 4.882812 183.640625 C 4.289062 182.996094 3.9375 182.5 3.550781 181.707031 C 3.300781 180.351562 3.148438 179.171875 3.597656 177.859375 C 4.195312 176.570312 4.917969 175.613281 6.011719 174.683594 C 7.519531 173.746094 9.269531 173.867188 10.972656 174.097656 " fill-opacity="1" fill-rule="nonzero"/><path fill="#9dd681" d="M 14.769531 143.742188 C 16.125 144.359375 16.96875 145.339844 17.921875 146.460938 C 18.269531 146.953125 18.269531 146.953125 18.5625 147.828125 C 18.691406 149.402344 18.585938 150.730469 17.980469 152.207031 L 17.394531 152.207031 L 17.351562 152.882812 L 17.101562 153.667969 C 15.867188 154.484375 14.402344 155.046875 12.921875 155.191406 C 11.726562 155.09375 10.691406 154.660156 9.691406 154.027344 C 8.628906 153.210938 7.929688 152.289062 7.378906 151.058594 C 7.105469 149.828125 7.035156 148.765625 7.316406 147.523438 C 7.585938 146.675781 7.863281 146 8.460938 145.335938 C 10.453125 143.621094 12.203125 143.488281 14.769531 143.742188 " fill-opacity="1" fill-rule="nonzero"/><path fill="#9ed782" d="M 57.054688 189.332031 C 58.339844 190.078125 59.136719 190.886719 59.953125 192.121094 C 60.410156 193.367188 60.496094 194.386719 60.300781 195.699219 C 59.898438 197.042969 59.414062 198.054688 58.402344 199.035156 C 56.804688 200.035156 56.804688 200.035156 55.773438 200.175781 C 54.421875 200.195312 53.261719 200.167969 52.019531 199.601562 C 50.925781 198.960938 50.199219 198.226562 49.5 197.15625 C 49.007812 195.96875 48.914062 194.957031 48.953125 193.671875 C 49.195312 192.304688 49.574219 191.007812 50.375 189.859375 C 52.132812 188.550781 55.074219 188.578125 57.054688 189.332031 " fill-opacity="1" fill-rule="nonzero"/><path fill="#78ba57" d="M 53.878906 173.222656 L 53.878906 173.808594 L 54.410156 173.898438 C 55.046875 174.097656 55.046875 174.097656 55.558594 174.519531 L 55.921875 174.972656 L 55.921875 175.558594 L 56.507812 175.558594 C 56.902344 176.742188 56.957031 177.820312 56.796875 179.0625 C 56.488281 179.789062 56.160156 180.203125 55.628906 180.8125 L 55.046875 180.8125 L 55.046875 181.394531 L 54.464844 181.394531 L 54.464844 181.980469 C 53.113281 182.429688 51.785156 182.421875 50.375 182.273438 C 49.519531 181.777344 49.519531 181.777344 48.917969 181.105469 L 48.277344 180.410156 C 47.6875 179.550781 47.386719 178.914062 47.167969 177.894531 C 47.207031 177.09375 47.320312 176.351562 47.457031 175.558594 L 48.332031 175.265625 C 48.53125 174.878906 48.722656 174.488281 48.917969 174.097656 C 50.488281 172.84375 51.980469 172.820312 53.878906 173.222656 " fill-opacity="1" fill-rule="nonzero"/><path fill="#79ba58" d="M 33.324219 167.761719 C 34.410156 168.078125 35.097656 168.710938 35.921875 169.460938 C 36.367188 170.011719 36.367188 170.011719 36.570312 170.59375 C 36.722656 171.589844 36.828125 172.519531 36.660156 173.515625 C 36.25 174.324219 35.804688 174.867188 35.199219 175.558594 L 34.617188 175.558594 L 34.617188 176.140625 C 33.527344 176.492188 32.492188 176.800781 31.347656 176.632812 C 30.492188 176.351562 29.851562 176.035156 29.195312 175.421875 C 28.683594 174.824219 28.253906 174.21875 27.902344 173.515625 C 27.777344 172.300781 27.765625 171.222656 28.230469 170.085938 C 28.933594 169.242188 29.648438 168.628906 30.53125 167.96875 C 31.554688 167.628906 32.261719 167.632812 33.324219 167.761719 " fill-opacity="1" fill-rule="nonzero"/><path fill="#428e1c" d="M 9.804688 190.445312 C 10.628906 190.734375 10.628906 190.734375 11.265625 191.027344 C 12.019531 191.078125 12.019531 191.078125 12.726562 191.027344 L 13.601562 191.027344 L 13.015625 191.902344 C 13.082031 192.699219 13.175781 193.453125 13.308594 194.238281 C 13.363281 194.628906 13.417969 195.015625 13.472656 195.40625 L 13.601562 196.28125 L 14.183594 196.28125 L 14.183594 197.742188 L 13.601562 197.742188 L 13.566406 198.363281 C 13.25 199.398438 12.75 199.878906 11.988281 200.621094 L 11.558594 200.953125 L 10.972656 200.953125 L 10.972656 201.535156 C 9.617188 201.988281 8.304688 201.964844 6.886719 201.828125 C 5.988281 201.578125 5.289062 201.234375 4.554688 200.660156 C 3.820312 199.871094 3.246094 199.089844 2.914062 198.058594 C 2.636719 196.550781 2.632812 195.0625 3.09375 193.601562 C 3.90625 192.457031 4.882812 191.5625 6.011719 190.734375 C 7.273438 190.316406 8.488281 190.351562 9.804688 190.445312 M 5.539062 193 C 4.953125 193.539062 4.953125 193.539062 4.554688 194.238281 C 4.273438 195.460938 4.292969 196.515625 4.554688 197.742188 C 5.027344 198.699219 5.691406 199.25 6.542969 199.894531 C 7.546875 200.179688 8.488281 200.230469 9.515625 200.078125 C 10.351562 199.785156 10.824219 199.457031 11.558594 198.910156 C 12.222656 197.945312 12.417969 197.296875 12.542969 196.136719 C 12.417969 194.984375 12.199219 194.328125 11.558594 193.363281 C 10.828125 192.617188 10.828125 192.617188 9.804688 192.195312 C 8.167969 191.851562 6.90625 192.003906 5.539062 193 " fill-opacity="1" fill-rule="nonzero"/><path fill="#bbed9b" d="M 49.5 143.449219 C 50.546875 143.992188 51.1875 144.539062 51.945312 145.4375 C 52.421875 146.371094 52.421875 146.371094 52.546875 147.390625 C 52.40625 148.515625 52.152344 149.210938 51.542969 150.164062 C 51.023438 150.640625 51.023438 150.640625 50.375 151.039062 C 49.644531 151.179688 49.644531 151.179688 48.882812 151.222656 C 47.839844 151.273438 47.839844 151.273438 46.875 151.625 L 46.875 151.039062 L 46.179688 150.875 C 45.929688 150.738281 45.675781 150.597656 45.414062 150.457031 C 44.855469 149.09375 44.675781 147.832031 44.832031 146.371094 C 45.113281 145.59375 45.46875 144.960938 46 144.328125 C 47.167969 143.539062 48.097656 143.246094 49.5 143.449219 M 26.773438 184.84375 C 27.671875 185.214844 27.984375 185.511719 28.597656 186.25 C 29.164062 187.085938 29.367188 187.542969 29.542969 188.566406 C 29.3125 189.84375 28.9375 190.539062 28.195312 191.613281 C 27.550781 192.253906 27.085938 192.46875 26.222656 192.761719 C 25.296875 192.777344 24.898438 192.691406 24.070312 192.324219 C 23.285156 191.878906 22.832031 191.496094 22.191406 190.828125 C 21.789062 189.898438 21.703125 189.503906 21.753906 188.527344 C 21.917969 187.578125 22.085938 187.203125 22.667969 186.394531 C 23.976562 185.445312 25.152344 184.941406 26.773438 184.84375 " fill-opacity="1" fill-rule="nonzero"/><path fill="#4a7d2d" d="M 23.816406 177.019531 L 24.691406 177.601562 C 24.828125 178.425781 24.828125 178.425781 24.691406 179.351562 C 24.117188 180.097656 24.117188 180.097656 23.378906 180.777344 L 22.640625 181.464844 L 22.066406 181.980469 L 22.648438 182.273438 L 22.648438 181.6875 C 23.140625 181.183594 23.140625 181.183594 23.78125 180.628906 L 24.417969 180.070312 L 24.984375 179.644531 L 25.566406 179.644531 C 25.152344 180.597656 24.644531 181.214844 23.902344 181.941406 L 23.234375 182.597656 L 22.511719 183.300781 L 21.003906 184.785156 C 20.210938 185.566406 19.417969 186.34375 18.621094 187.117188 C 17.855469 187.867188 17.089844 188.621094 16.328125 189.375 L 15.601562 190.078125 L 14.933594 190.738281 L 14.34375 191.316406 C 13.847656 191.890625 13.847656 191.890625 13.664062 192.671875 L 13.601562 193.363281 C 13.789062 193.753906 13.984375 194.144531 14.183594 194.53125 C 14.222656 195.480469 14.222656 195.480469 14.183594 196.28125 L 13.601562 196.28125 C 13.453125 195.828125 13.308594 195.371094 13.164062 194.914062 L 12.917969 194.144531 C 12.722656 193.355469 12.671875 192.710938 12.726562 191.902344 L 13.015625 191.027344 L 12.140625 191.027344 L 12.597656 190.585938 C 14.015625 189.214844 15.429688 187.835938 16.835938 186.453125 C 17.5625 185.742188 18.285156 185.03125 19.019531 184.328125 C 19.855469 183.515625 20.691406 182.699219 21.519531 181.878906 L 22.316406 181.117188 C 22.980469 180.453125 23.582031 179.835938 24.109375 179.0625 C 24.234375 178.214844 24.113281 177.835938 23.816406 177.015625 " fill-opacity="1" fill-rule="nonzero"/><path fill="#77975c" d="M 23.523438 171.179688 L 24.109375 171.179688 L 24.195312 171.789062 C 24.492188 173.667969 24.890625 175.363281 25.859375 177.019531 C 26.539062 177.84375 26.539062 177.84375 27.320312 178.476562 L 28.046875 179.117188 C 28.761719 179.632812 29.40625 179.945312 30.238281 180.226562 C 29.742188 180.417969 29.742188 180.417969 29.070312 180.519531 C 27.566406 179.90625 26.21875 178.949219 25.128906 177.746094 C 23.910156 176.167969 23.675781 174.378906 23.3125 172.460938 L 23.234375 171.761719 Z M 23.523438 171.179688 " fill-opacity="1" fill-rule="nonzero"/><path fill="#408f1a" d="M 21.191406 182.5625 L 21.773438 182.855469 L 21.171875 183.4375 C 20.320312 184.289062 19.535156 185.191406 18.75 186.105469 C 17.875 187.101562 17.875 187.101562 17.394531 187.527344 L 16.8125 187.527344 L 16.8125 188.109375 L 15.9375 188.402344 C 16.351562 187.449219 16.859375 186.824219 17.597656 186.097656 L 18.230469 185.46875 L 18.890625 184.824219 L 19.558594 184.167969 C 20.101562 183.632812 20.644531 183.097656 21.191406 182.5625 " fill-opacity="1" fill-rule="nonzero"/><path fill="#718465" d="M 31.984375 167.613281 C 33.058594 167.691406 33.808594 167.824219 34.722656 168.425781 C 35.3125 168.929688 35.863281 169.417969 36.367188 170.011719 L 36.367188 170.597656 C 35.628906 170.28125 35.199219 170.011719 34.652344 169.410156 C 34.0625 168.78125 34.0625 168.78125 33.191406 168.644531 L 32.28125 168.554688 L 31.296875 168.390625 L 30.53125 168.261719 C 31.40625 167.675781 31.40625 167.675781 31.984375 167.613281 " fill-opacity="1" fill-rule="nonzero"/><path fill="#6d8062" d="M 14.476562 179.0625 L 15.058594 179.0625 C 14.921875 180.4375 14.777344 181.589844 14.183594 182.855469 L 13.601562 182.5625 Z M 14.476562 179.0625 " fill-opacity="1" fill-rule="nonzero"/><path fill="#62843e" d="M 35.492188 154.25 L 36.074219 154.25 C 35.621094 155.363281 34.898438 156.058594 34.03125 156.878906 L 33.449219 156.292969 L 34.03125 156.292969 L 34.269531 155.765625 C 34.617188 155.125 34.9375 154.714844 35.492188 154.25 " fill-opacity="1" fill-rule="nonzero"/><path fill="#6d8062" d="M 56.214844 176.433594 L 56.796875 176.433594 L 56.796875 179.0625 L 55.921875 179.0625 Z M 56.214844 176.433594 " fill-opacity="1" fill-rule="nonzero"/><path fill="#6d8062" d="M 31.40625 167.675781 C 32.480469 167.785156 32.480469 167.785156 33.449219 167.96875 L 32.863281 168.554688 C 32.066406 168.542969 31.320312 168.386719 30.53125 168.261719 Z M 31.40625 167.675781 " fill-opacity="1" fill-rule="nonzero"/></svg>